<svg width="40" height="40" viewBox="0 0 40 40" fill="none" xmlns="http://www.w3.org/2000/svg">
<g id="binance-chain">
<path id="shape" fill-rule="evenodd" clip-rule="evenodd" d="M13.6475 17.4467L19.8619 11.2325L26.0797 17.45L29.6956 13.834L19.8619 4L10.0315 13.8307L13.6475 17.4467ZM11.0938 19.9994L7.47792 16.3835L3.86182 19.9996L7.47774 23.6155L11.0938 19.9994ZM19.8619 28.7675L13.6474 22.5533L10.0261 26.1645L10.0312 26.1696L19.8619 36L29.6956 26.1663L29.6974 26.1643L26.0793 22.5503L19.8619 28.7675ZM32.2462 23.6173L35.8623 20.0012L32.2464 16.3852L28.6303 20.0013L32.2462 23.6173ZM23.5312 19.9981H23.5297L23.533 19.9999L23.5312 20.0019L19.8619 23.6712L16.1959 20.0052L16.1908 19.9999L16.1959 19.9948L16.8386 19.3521L17.15 19.0405H17.1502L19.8619 16.3288L23.5312 19.9981Z" fill="black"/>
</g>
</svg>
