<svg width="343" height="786" viewBox="0 0 343 823" fill="none" xmlns="http://www.w3.org/2000/svg">
<path fill-rule="evenodd" clip-rule="evenodd" d="M155.918 370.325C155.918 369.723 156.406 369.236 157.007 369.236H169.569C170.171 369.236 170.658 369.723 170.658 370.325V382.887C170.658 383.489 170.171 383.976 169.569 383.976H157.007C156.406 383.976 155.918 383.489 155.918 382.887V370.325ZM157.007 369.671C156.646 369.671 156.354 369.964 156.354 370.325V382.887C156.354 383.248 156.646 383.541 157.007 383.541H169.569C169.93 383.541 170.223 383.248 170.223 382.887V370.325C170.223 369.964 169.93 369.671 169.569 369.671H157.007Z" fill="#5A5A5A"/>
<path fill-rule="evenodd" clip-rule="evenodd" d="M155.918 388.206C155.918 387.604 156.406 387.117 157.007 387.117H169.569C170.171 387.117 170.658 387.604 170.658 388.206V400.768C170.658 401.37 170.171 401.857 169.569 401.857H157.007C156.406 401.857 155.918 401.37 155.918 400.768V388.206ZM157.007 387.553C156.646 387.553 156.354 387.845 156.354 388.206V400.768C156.354 401.129 156.646 401.422 157.007 401.422H169.569C169.93 401.422 170.223 401.129 170.223 400.768V388.206C170.223 387.845 169.93 387.553 169.569 387.553H157.007Z" fill="#5A5A5A"/>
<path fill-rule="evenodd" clip-rule="evenodd" d="M135.713 370.325C135.713 369.723 136.2 369.236 136.802 369.236H149.364C149.965 369.236 150.453 369.723 150.453 370.325V382.887C150.453 383.489 149.965 383.976 149.364 383.976H136.802C136.2 383.976 135.713 383.489 135.713 382.887V370.325ZM136.802 369.671C136.441 369.671 136.148 369.964 136.148 370.325V382.887C136.148 383.248 136.441 383.541 136.802 383.541H149.364C149.725 383.541 150.017 383.248 150.017 382.887V370.325C150.017 369.964 149.725 369.671 149.364 369.671H136.802Z" fill="#5A5A5A"/>
<path fill-rule="evenodd" clip-rule="evenodd" d="M135.713 388.206C135.713 387.604 136.2 387.117 136.802 387.117H149.364C149.965 387.117 150.453 387.604 150.453 388.206V400.768C150.453 401.37 149.965 401.857 149.364 401.857H136.802C136.2 401.857 135.713 401.37 135.713 400.768V388.206ZM136.802 387.553C136.441 387.553 136.148 387.845 136.148 388.206V400.768C136.148 401.129 136.441 401.422 136.802 401.422H149.364C149.725 401.422 150.017 401.129 150.017 400.768V388.206C150.017 387.845 149.725 387.553 149.364 387.553H136.802Z" fill="#5A5A5A"/>
<path fill-rule="evenodd" clip-rule="evenodd" d="M176.124 370.325C176.124 369.723 176.611 369.236 177.213 369.236H189.775C190.376 369.236 190.864 369.723 190.864 370.325V382.887C190.864 383.489 190.376 383.976 189.775 383.976H177.213C176.611 383.976 176.124 383.489 176.124 382.887V370.325ZM177.213 369.671C176.852 369.671 176.559 369.964 176.559 370.325V382.887C176.559 383.248 176.852 383.541 177.213 383.541H189.775C190.136 383.541 190.428 383.248 190.428 382.887V370.325C190.428 369.964 190.136 369.671 189.775 369.671H177.213Z" fill="#5A5A5A"/>
<path fill-rule="evenodd" clip-rule="evenodd" d="M176.124 388.206C176.124 387.604 176.611 387.117 177.213 387.117H189.775C190.376 387.117 190.864 387.604 190.864 388.206V400.768C190.864 401.37 190.376 401.857 189.775 401.857H177.213C176.611 401.857 176.124 401.37 176.124 400.768V388.206ZM177.213 387.553C176.852 387.553 176.559 387.845 176.559 388.206V400.768C176.559 401.129 176.852 401.422 177.213 401.422H189.775C190.136 401.422 190.428 401.129 190.428 400.768V388.206C190.428 387.845 190.136 387.553 189.775 387.553H177.213Z" fill="#5A5A5A"/>
<path d="M196.547 370.325C196.547 369.844 196.937 369.454 197.418 369.454H209.98C210.462 369.454 210.852 369.844 210.852 370.325V382.887C210.852 383.368 210.462 383.758 209.98 383.758H197.418C196.937 383.758 196.547 383.368 196.547 382.887V370.325Z" fill="#5CC3FF"/>
<path fill-rule="evenodd" clip-rule="evenodd" d="M196.329 370.325C196.329 369.723 196.817 369.236 197.418 369.236H209.98C210.582 369.236 211.069 369.723 211.069 370.325V382.887C211.069 383.489 210.582 383.976 209.98 383.976H197.418C196.817 383.976 196.329 383.489 196.329 382.887V370.325ZM197.418 369.671C197.057 369.671 196.765 369.964 196.765 370.325V382.887C196.765 383.248 197.057 383.541 197.418 383.541H209.98C210.341 383.541 210.634 383.248 210.634 382.887V370.325C210.634 369.964 210.341 369.671 209.98 369.671H197.418Z" fill="#5CC3FF"/>
<path fill-rule="evenodd" clip-rule="evenodd" d="M196.329 388.206C196.329 387.604 196.817 387.117 197.418 387.117H209.98C210.582 387.117 211.069 387.604 211.069 388.206V400.768C211.069 401.37 210.582 401.857 209.98 401.857H197.418C196.817 401.857 196.329 401.37 196.329 400.768V388.206ZM197.418 387.553C197.057 387.553 196.765 387.845 196.765 388.206V400.768C196.765 401.129 197.057 401.422 197.418 401.422H209.98C210.341 401.422 210.634 401.129 210.634 400.768V388.206C210.634 387.845 210.341 387.553 209.98 387.553H197.418Z" fill="#5A5A5A"/>
<path fill-rule="evenodd" clip-rule="evenodd" d="M99.4356 484.775H248.564V330.323L216.677 298.436H99.4356V484.775ZM216.857 298L249 330.143V484.775V485.211H248.564H99.4356H99V484.775V298.436V298H99.4356H216.857Z" fill="white"/>
<path fill-rule="evenodd" clip-rule="evenodd" d="M249 330.143V485.211H99V298H216.857L249 330.143ZM216.677 298.436H99.4356V484.775H248.564V330.323L216.677 298.436Z" fill="#020202"/>
<path fill-rule="evenodd" clip-rule="evenodd" d="M110.318 485.013H110.754V490.639H236.942V485.013H237.377V491.075H225.689V496.919H122.007V491.075H110.318V485.013ZM122.442 491.075V496.483H225.253V491.075H122.442Z" fill="black"/>
<path d="M158.85 431.307V422.794H164.07V423.428H159.582V426.672H163.717V427.307H159.582V431.307H158.85Z" fill="black"/>
<path d="M166.773 431.307V430.722H169.005V423.379H166.773V422.794H171.969V423.379H169.737V430.722H171.969V431.307H166.773Z" fill="black"/>
<path d="M175.342 431.307V422.794H176.074V430.673H180.245V431.307H175.342Z" fill="black"/>
<path d="M182.985 431.307V422.794H188.12V423.428H183.717V426.672H187.961V427.307H183.717V430.673H188.12V431.307H182.985Z" fill="black"/>
<path d="M151.332 442.186H151.259L149.259 446.858L147.259 442.186H147.185V449.602H146.515V441.089H147.466L149.247 445.296H149.308L151.076 441.089H152.003V449.602H151.332V442.186Z" fill="black"/>
<path d="M159.719 449.602L158.914 447.004H155.694L154.877 449.602H154.12L156.828 441.089H157.791L160.487 449.602H159.719ZM157.34 441.869H157.255L155.864 446.37H158.731L157.34 441.869Z" fill="black"/>
<path d="M163.482 442.028H163.421V449.602H162.751V441.089H163.787L167.215 448.614H167.276V441.089H167.946V449.602H166.91L163.482 442.028Z" fill="black"/>
<path d="M175.808 449.602L175.003 447.004H171.783L170.966 449.602H170.21L172.918 441.089H173.881L176.577 449.602H175.808ZM173.43 441.869H173.345L171.954 446.37H174.82L173.43 441.869Z" fill="black"/>
<path d="M183.414 448.419H183.365C183.292 448.598 183.203 448.768 183.097 448.931C182.991 449.085 182.861 449.224 182.707 449.346C182.552 449.468 182.361 449.565 182.134 449.638C181.914 449.712 181.654 449.748 181.353 449.748C180.426 449.748 179.727 449.386 179.255 448.663C178.784 447.939 178.548 446.845 178.548 445.382C178.548 443.878 178.796 442.764 179.292 442.04C179.796 441.308 180.544 440.942 181.536 440.942C181.886 440.942 182.199 440.991 182.475 441.089C182.751 441.186 182.991 441.316 183.195 441.479C183.398 441.642 183.569 441.833 183.707 442.052C183.853 442.272 183.971 442.503 184.061 442.747L183.426 443.028C183.272 442.613 183.048 442.268 182.756 441.991C182.471 441.715 182.073 441.576 181.56 441.576C180.804 441.576 180.243 441.857 179.877 442.418C179.511 442.971 179.328 443.756 179.328 444.772V445.882C179.328 446.89 179.499 447.683 179.841 448.26C180.19 448.837 180.743 449.126 181.499 449.126C181.8 449.126 182.068 449.077 182.304 448.98C182.54 448.882 182.739 448.744 182.902 448.565C183.064 448.386 183.191 448.179 183.28 447.943C183.369 447.699 183.414 447.431 183.414 447.138V446.126H181.475V445.54H184.097V449.602H183.414V448.419Z" fill="black"/>
<path d="M187.007 449.602V441.089H192.142V441.723H187.739V444.967H191.983V445.601H187.739V448.968H192.142V449.602H187.007Z" fill="black"/>
<path d="M195.784 449.602H195.052V441.089H198.101C198.858 441.089 199.431 441.304 199.821 441.735C200.211 442.158 200.406 442.739 200.406 443.479C200.406 444.17 200.228 444.723 199.87 445.138C199.52 445.553 199 445.78 198.309 445.821H198.126L200.431 449.602H199.614L197.37 445.857H195.784V449.602ZM198.089 445.235C198.601 445.235 198.988 445.097 199.248 444.821C199.508 444.544 199.638 444.195 199.638 443.772V443.186C199.638 442.764 199.508 442.414 199.248 442.138C198.988 441.861 198.601 441.723 198.089 441.723H195.784V445.235H198.089Z" fill="black"/>
<g clip-path="url(#clip0_104_323)">
<path d="M334.5 656.275H313.5C312.053 656.275 310.875 655.097 310.875 653.65V626.35C310.875 624.903 312.053 623.725 313.5 623.725H324.18C324.881 623.725 325.541 623.998 326.036 624.494L336.356 634.814C336.852 635.31 337.125 635.968 337.125 636.67V653.65C337.125 655.097 335.947 656.275 334.5 656.275ZM313.5 624.775C312.631 624.775 311.925 625.481 311.925 626.35V653.65C311.925 654.519 312.631 655.225 313.5 655.225H334.5C335.369 655.225 336.075 654.519 336.075 653.65V636.67C336.075 636.255 335.907 635.849 335.614 635.556L325.294 625.236C324.996 624.939 324.601 624.775 324.18 624.775H313.5Z" fill="#1A1A1A"/>
<path d="M322.162 652.6H319.537V654.175H322.162V652.6Z" fill="#1A1A1A"/>
<path d="M319.537 654.175H316.912V655.75H319.537V654.175Z" fill="#1A1A1A"/>
<path d="M322.162 649.45H319.537V651.025H322.162V649.45Z" fill="#1A1A1A"/>
<path d="M319.537 651.025H316.912V652.6H319.537V651.025Z" fill="#1A1A1A"/>
<path d="M322.162 646.3H319.537V647.875H322.162V646.3Z" fill="#1A1A1A"/>
<path d="M319.537 647.875H316.912V649.45H319.537V647.875Z" fill="#1A1A1A"/>
<path d="M322.162 643.15H319.537V644.725H322.162V643.15Z" fill="#1A1A1A"/>
<path d="M319.537 644.725H316.912V646.3H319.537V644.725Z" fill="#1A1A1A"/>
<path d="M322.162 640H319.537V641.575H322.162V640Z" fill="#1A1A1A"/>
<path d="M319.537 641.575H316.912V643.15H319.537V641.575Z" fill="#1A1A1A"/>
<path d="M321.9 630.812H317.7C317.411 630.812 317.175 631.049 317.175 631.337V637.9C317.175 638.189 317.411 638.425 317.7 638.425H321.9C322.189 638.425 322.425 638.189 322.425 637.9V631.337C322.425 631.049 322.189 630.812 321.9 630.812ZM321.113 635.012H318.488V632.125H321.113V635.012Z" fill="#1A1A1A"/>
</g>
<mask id="mask0_104_323" style="mask-type:alpha" maskUnits="userSpaceOnUse" x="0" y="745" width="40" height="41">
<rect y="745" width="40" height="41" fill="#D9D9D9"/>
</mask>
<g mask="url(#mask0_104_323)">
<path d="M12.7029 761.496C13.0089 761.496 13.2799 761.381 13.5159 761.151C13.7519 760.921 13.8699 760.657 13.8699 760.359C13.8699 760.061 13.7519 759.798 13.5159 759.568C13.2799 759.337 13.0089 759.221 12.7029 759.221C12.3975 759.221 12.1269 759.337 11.8909 759.568C11.6549 759.798 11.5369 760.061 11.5369 760.359C11.5369 760.657 11.6549 760.921 11.8909 761.151C12.1269 761.381 12.3975 761.496 12.7029 761.496ZM19.5369 761.496C19.8422 761.496 20.1129 761.381 20.3489 761.151C20.5849 760.921 20.7029 760.657 20.7029 760.359C20.7029 760.061 20.5849 759.798 20.3489 759.568C20.1129 759.337 19.8422 759.221 19.5369 759.221C19.2309 759.221 18.9599 759.337 18.7239 759.568C18.4879 759.798 18.3699 760.061 18.3699 760.359C18.3699 760.657 18.4879 760.921 18.7239 761.151C18.9599 761.381 19.2309 761.496 19.5369 761.496ZM26.2869 761.496C26.5922 761.496 26.8629 761.381 27.0989 761.151C27.3349 760.921 27.4529 760.657 27.4529 760.359C27.4529 760.061 27.3349 759.798 27.0989 759.568C26.8629 759.337 26.5922 759.221 26.2869 759.221C25.9809 759.221 25.7099 759.337 25.4739 759.568C25.2379 759.798 25.1199 760.061 25.1199 760.359C25.1199 760.657 25.2379 760.921 25.4739 761.151C25.7099 761.381 25.9809 761.496 26.2869 761.496ZM4.99487 775.833V751.789C4.99487 751.139 5.21721 750.598 5.66187 750.165C6.10587 749.732 6.66121 749.515 7.32787 749.515H31.6619C32.3285 749.515 32.8839 749.732 33.3279 750.165C33.7725 750.598 33.9949 751.139 33.9949 751.789V769.01C33.9949 769.659 33.7725 770.201 33.3279 770.634C32.8839 771.067 32.3285 771.284 31.6619 771.284H9.66187L4.99487 775.833ZM5.99487 773.437L9.20287 770.309H31.6619C32.0505 770.309 32.3699 770.187 32.6199 769.943C32.8699 769.7 32.9949 769.388 32.9949 769.01V751.789C32.9949 751.41 32.8699 751.099 32.6199 750.855C32.3699 750.612 32.0505 750.49 31.6619 750.49H7.32787C6.93921 750.49 6.61987 750.612 6.36987 750.855C6.11987 751.099 5.99487 751.41 5.99487 751.789V773.437ZM5.99487 751.789V750.49V773.437V751.789Z" fill="#1C1B1F"/>
</g>
<path d="M273.373 538.6H278.701V539.536H276.541V546.064H278.701V547H273.373V546.064H275.533V539.536H273.373V538.6ZM282.46 543.544V547H281.452V538.6H284.452C284.884 538.6 285.26 538.664 285.58 538.792C285.9 538.912 286.164 539.076 286.372 539.284C286.588 539.492 286.748 539.736 286.852 540.016C286.964 540.288 287.02 540.576 287.02 540.88V541.24C287.02 541.544 286.964 541.836 286.852 542.116C286.748 542.396 286.588 542.644 286.372 542.86C286.156 543.068 285.888 543.236 285.568 543.364C285.248 543.484 284.876 543.544 284.452 543.544H282.46ZM282.46 542.608H284.332C285.452 542.608 286.012 542.128 286.012 541.168V540.952C286.012 540.528 285.872 540.188 285.592 539.932C285.32 539.668 284.9 539.536 284.332 539.536H282.46V542.608ZM289.64 538.6H294.8V539.536H290.648V542.32H294.728V543.256H290.648V547H289.64V538.6ZM302.22 541.024C302.22 540.752 302.164 540.512 302.052 540.304C301.948 540.096 301.804 539.924 301.62 539.788C301.436 539.652 301.224 539.548 300.984 539.476C300.744 539.404 300.492 539.368 300.228 539.368C299.996 539.368 299.776 539.4 299.568 539.464C299.36 539.52 299.172 539.604 299.004 539.716C298.844 539.828 298.716 539.968 298.62 540.136C298.524 540.296 298.476 540.484 298.476 540.7V540.772C298.476 541.004 298.524 541.204 298.62 541.372C298.716 541.532 298.856 541.672 299.04 541.792C299.232 541.904 299.468 542 299.748 542.08C300.028 542.152 300.356 542.216 300.732 542.272C301.612 542.408 302.26 542.668 302.676 543.052C303.092 543.428 303.3 543.936 303.3 544.576V544.72C303.3 545.08 303.236 545.412 303.108 545.716C302.988 546.012 302.804 546.268 302.556 546.484C302.316 546.7 302.016 546.868 301.656 546.988C301.296 547.108 300.88 547.168 300.408 547.168C299.872 547.168 299.396 547.092 298.98 546.94C298.572 546.78 298.228 546.564 297.948 546.292C297.676 546.012 297.468 545.688 297.324 545.32C297.18 544.944 297.108 544.536 297.108 544.096V543.736H298.116V544.024C298.116 544.76 298.316 545.312 298.716 545.68C299.124 546.048 299.688 546.232 300.408 546.232C301.032 546.232 301.5 546.096 301.812 545.824C302.132 545.544 302.292 545.176 302.292 544.72V544.648C302.292 544.208 302.128 543.872 301.8 543.64C301.48 543.408 300.956 543.24 300.228 543.136C299.804 543.08 299.42 542.996 299.076 542.884C298.74 542.764 298.452 542.612 298.212 542.428C297.972 542.236 297.788 542.008 297.66 541.744C297.532 541.48 297.468 541.168 297.468 540.808V540.664C297.468 540.336 297.536 540.036 297.672 539.764C297.808 539.492 297.996 539.256 298.236 539.056C298.484 538.856 298.776 538.704 299.112 538.6C299.456 538.488 299.832 538.432 300.24 538.432C300.712 538.432 301.132 538.5 301.5 538.636C301.876 538.772 302.192 538.956 302.448 539.188C302.704 539.412 302.896 539.68 303.024 539.992C303.16 540.296 303.228 540.616 303.228 540.952V541.456H302.22V541.024Z" fill="black"/>
<path fill-rule="evenodd" clip-rule="evenodd" d="M244.504 533.728L250.884 537.524L257.518 533.755L251.027 530L251.027 530L251.026 530H251.026L244.504 533.728ZM243.512 534.302L240.795 535.854L243.613 537.582L246.416 536.029L243.512 534.302ZM239.762 536.394L237 537.973L237.002 537.974V541.707L237.003 541.708L239.769 543.307L239.769 540.005L239.769 539.711L240.026 539.568L242.608 538.138L239.762 536.394ZM237.01 542.95V545.516L239.769 547.115L239.769 544.472L237.01 542.95ZM237.003 546.668V554.044L237.006 554.046L243.451 557.774L243.451 550.407L237.003 546.668ZM244.451 558.423L250.956 562.186V562.186L250.957 562.187H250.957L250.958 562.187L250.958 562.187L250.958 562.187V562.187L257.435 558.484L257.435 551.097L251.248 554.64L250.998 554.783L250.749 554.638L244.451 550.986L244.451 558.423ZM258.435 557.884L261.409 556.184V556.184V552.441L261.409 552.442V552.441L258.435 554.142L258.435 557.884ZM262.598 555.556L265 554.183V554.182V550.462L264.05 550.983L262.598 551.813L262.598 555.556ZM264.992 549.326V546.769L262.598 548.14V550.639L264.992 549.326ZM264.985 545.621V538.045L264.985 538.045V538.045L264.96 538.059L258.523 534.334L251.873 538.112L258.19 541.869L258.435 542.015V542.299L258.435 549.372L264.985 545.621ZM261.401 548.826V551.295L258.435 552.922V550.524L261.401 548.826ZM247.103 539.672L249.884 538.092L247.411 536.621L244.593 538.182L245.682 538.85L247.103 539.672ZM243.451 545.362L243.451 542.037V541.746L243.704 541.603L246.069 540.26L243.587 538.739L240.769 540.3L240.769 543.81L243.451 545.362ZM250.956 546.03L250.956 546.03L250.957 546.03L257.215 542.453L257.435 542.583L257.435 549.945L251.002 553.629L244.451 549.83L244.451 542.328L250.873 538.68L257.213 542.452L251.012 545.998L250.956 546.03ZM243.451 546.504L243.451 549.251L240.769 547.695L240.769 545.024L243.451 546.504Z" fill="#5CC3FF"/>
<g filter="url(#filter0_bd_104_323)">
<path d="M152.282 609V684.22H208V636.929L180.106 609H152.282Z" fill="white" fill-opacity="0.6" shape-rendering="crispEdges"/>
<path d="M152.282 609V684.22H208V636.929L180.106 609H152.282Z" stroke="#A49A9A" stroke-dasharray="5 5" shape-rendering="crispEdges"/>
</g>
<path d="M180.141 609L208 636.859" stroke="#A49A9A" stroke-dasharray="5 5"/>
<g filter="url(#filter1_bd_104_323)">
<path d="M141 618.641V693.861H196.718V646.57L168.824 618.641H141Z" fill="white" fill-opacity="0.6" shape-rendering="crispEdges"/>
<path d="M141 618.641V693.861H196.718V646.57L168.824 618.641H141Z" stroke="#5CC3FF" shape-rendering="crispEdges"/>
</g>
<path d="M168.859 618.641L196.718 646.5" stroke="#5CC3FF"/>
<path d="M167.922 669.936L158.336 657.781L161.089 651.932H174.755L177.508 657.781L167.922 669.936ZM164.557 657.404H171.287L169.146 652.849H166.698L164.557 657.404ZM167.489 667.996V658.32H159.891L167.489 667.996ZM168.355 667.996L175.953 658.32H168.355V667.996ZM172.256 657.404H176.335L174.168 652.849H170.115L172.256 657.404ZM159.509 657.404H163.588L165.73 652.849H161.676L159.509 657.404Z" fill="#5CC3FF"/>
<path d="M267.822 266C267.049 266 266.385 265.767 265.832 265.3C265.277 264.834 265 264.276 265 263.626V249.083C265 248.433 265.277 247.875 265.832 247.408C266.385 246.942 267.049 246.709 267.822 246.709H271.146V243.19C271.146 241.466 271.86 240.003 273.287 238.802C274.714 237.601 276.451 237 278.5 237C280.549 237 282.286 237.601 283.713 238.802C285.14 240.003 285.854 241.466 285.854 243.19V246.709H289.178C289.951 246.709 290.615 246.942 291.168 247.408C291.723 247.875 292 248.433 292 249.083V263.626C292 264.276 291.723 264.834 291.168 265.3C290.615 265.767 289.951 266 289.178 266H267.822ZM267.822 264.982H289.178C289.649 264.982 290.036 264.855 290.338 264.601C290.64 264.346 290.791 264.022 290.791 263.626V249.083C290.791 248.688 290.64 248.363 290.338 248.109C290.036 247.854 289.649 247.727 289.178 247.727H267.822C267.351 247.727 266.964 247.854 266.662 248.109C266.36 248.363 266.209 248.688 266.209 249.083V263.626C266.209 264.022 266.36 264.346 266.662 264.601C266.964 264.855 267.351 264.982 267.822 264.982ZM272.355 246.709H284.645V243.19C284.645 241.748 284.049 240.526 282.857 239.522C281.665 238.519 280.213 238.018 278.5 238.018C276.787 238.018 275.335 238.519 274.143 239.522C272.951 240.526 272.355 241.748 272.355 243.19V246.709Z" fill="#DBDBDB"/>
<circle cx="45.5" cy="590.5" r="38.25" stroke="#5CC3FF" stroke-width="0.5" stroke-dasharray="2 2"/>
<path d="M29.6338 602.956V612H28.7938V602.956H25.4478V602.228H32.9798V602.956H29.6338Z" fill="#5CC3FF"/>
<path d="M35.6063 612H34.7663V602.228H38.2663C39.1343 602.228 39.7923 602.475 40.2403 602.97C40.6883 603.455 40.9123 604.123 40.9123 604.972C40.9123 605.765 40.707 606.4 40.2963 606.876C39.895 607.352 39.2976 607.613 38.5043 607.66H38.2943L40.9403 612H40.0023L37.4263 607.702H35.6063V612ZM38.2523 606.988C38.8403 606.988 39.2836 606.829 39.5823 606.512C39.881 606.195 40.0303 605.793 40.0303 605.308V604.636C40.0303 604.151 39.881 603.749 39.5823 603.432C39.2836 603.115 38.8403 602.956 38.2523 602.956H35.6063V606.988H38.2523Z" fill="#5CC3FF"/>
<path d="M48.7748 612L47.8508 609.018H44.1548L43.2168 612H42.3488L45.4568 602.228H46.5628L49.6568 612H48.7748ZM46.0448 603.124H45.9468L44.3508 608.29H47.6408L46.0448 603.124Z" fill="#5CC3FF"/>
<path d="M51.5973 602.228H54.2573C55.4427 602.228 56.3153 602.643 56.8753 603.474C57.4447 604.295 57.7293 605.509 57.7293 607.114C57.7293 608.729 57.4447 609.947 56.8753 610.768C56.3153 611.589 55.4427 612 54.2573 612H51.5973V602.228ZM54.2293 611.272C55.116 611.272 55.7693 610.964 56.1893 610.348C56.6187 609.723 56.8333 608.855 56.8333 607.744V606.484C56.8333 605.373 56.6187 604.51 56.1893 603.894C55.7693 603.269 55.116 602.956 54.2293 602.956H52.4373V611.272H54.2293Z" fill="#5CC3FF"/>
<path d="M59.9499 612V602.228H65.8439V602.956H60.7899V606.68H65.6619V607.408H60.7899V611.272H65.8439V612H59.9499Z" fill="#5CC3FF"/>
<path d="M34.7598 575.324V576.596H28.9121V575.324H34.7598ZM32.5215 572.934V579.145H31.1562V572.934H32.5215Z" fill="#5CC3FF"/>
<path d="M41.5566 578.875V580H35.8379V579.033L38.6152 576.004C38.9199 575.66 39.1602 575.363 39.3359 575.113C39.5117 574.863 39.6348 574.639 39.7051 574.439C39.7793 574.236 39.8164 574.039 39.8164 573.848C39.8164 573.578 39.7656 573.342 39.6641 573.139C39.5664 572.932 39.4219 572.77 39.2305 572.652C39.0391 572.531 38.8066 572.471 38.5332 572.471C38.2168 572.471 37.9512 572.539 37.7363 572.676C37.5215 572.812 37.3594 573.002 37.25 573.244C37.1406 573.482 37.0859 573.756 37.0859 574.064H35.6738C35.6738 573.568 35.7871 573.115 36.0137 572.705C36.2402 572.291 36.5684 571.963 36.998 571.721C37.4277 571.475 37.9453 571.352 38.5508 571.352C39.1211 571.352 39.6055 571.447 40.0039 571.639C40.4023 571.83 40.7051 572.102 40.9121 572.453C41.123 572.805 41.2285 573.221 41.2285 573.701C41.2285 573.967 41.1855 574.23 41.0996 574.492C41.0137 574.754 40.8906 575.016 40.7305 575.277C40.5742 575.535 40.3887 575.795 40.1738 576.057C39.959 576.314 39.7227 576.576 39.4648 576.842L37.6191 578.875H41.5566Z" fill="#5CC3FF"/>
<path d="M46.5137 571.439V580H45.1016V573.115L43.0098 573.824V572.658L46.3438 571.439H46.5137Z" fill="#5CC3FF"/>
<path d="M51.1367 575.096H51.9805C52.3086 575.096 52.5801 575.039 52.7949 574.926C53.0137 574.812 53.1758 574.656 53.2812 574.457C53.3867 574.258 53.4395 574.029 53.4395 573.771C53.4395 573.502 53.3906 573.271 53.293 573.08C53.1992 572.885 53.0547 572.734 52.8594 572.629C52.668 572.523 52.4238 572.471 52.127 572.471C51.877 572.471 51.6504 572.521 51.4473 572.623C51.248 572.721 51.0898 572.861 50.9727 573.045C50.8555 573.225 50.7969 573.439 50.7969 573.689H49.3789C49.3789 573.236 49.498 572.834 49.7363 572.482C49.9746 572.131 50.2988 571.855 50.709 571.656C51.123 571.453 51.5879 571.352 52.1035 571.352C52.6543 571.352 53.1348 571.443 53.5449 571.627C53.959 571.807 54.2812 572.076 54.5117 572.436C54.7422 572.795 54.8574 573.24 54.8574 573.771C54.8574 574.014 54.8008 574.26 54.6875 574.51C54.5742 574.76 54.4062 574.988 54.1836 575.195C53.9609 575.398 53.6836 575.564 53.3516 575.693C53.0195 575.818 52.6348 575.881 52.1973 575.881H51.1367V575.096ZM51.1367 576.197V575.424H52.1973C52.6973 575.424 53.123 575.482 53.4746 575.6C53.8301 575.717 54.1191 575.879 54.3418 576.086C54.5645 576.289 54.7266 576.521 54.8281 576.783C54.9336 577.045 54.9863 577.322 54.9863 577.615C54.9863 578.014 54.9141 578.369 54.7695 578.682C54.6289 578.99 54.4277 579.252 54.166 579.467C53.9043 579.682 53.5977 579.844 53.2461 579.953C52.8984 580.062 52.5195 580.117 52.1094 580.117C51.7422 580.117 51.3906 580.066 51.0547 579.965C50.7188 579.863 50.418 579.713 50.1523 579.514C49.8867 579.311 49.6758 579.059 49.5195 578.758C49.3672 578.453 49.291 578.102 49.291 577.703H50.7031C50.7031 577.957 50.7617 578.182 50.8789 578.377C51 578.568 51.168 578.719 51.3828 578.828C51.6016 578.938 51.8516 578.992 52.1328 578.992C52.4297 578.992 52.6855 578.939 52.9004 578.834C53.1152 578.729 53.2793 578.572 53.3926 578.365C53.5098 578.158 53.5684 577.908 53.5684 577.615C53.5684 577.283 53.5039 577.014 53.375 576.807C53.2461 576.6 53.0625 576.447 52.8242 576.35C52.5859 576.248 52.3047 576.197 51.9805 576.197H51.1367Z" fill="#5CC3FF"/>
<path d="M59.6914 570.104V571.855H58.7891V570.104H59.6914ZM59.5801 579.672V581.242H58.6836V579.672H59.5801ZM60.4648 577.779C60.4648 577.553 60.418 577.355 60.3242 577.188C60.2344 577.016 60.0859 576.861 59.8789 576.725C59.6719 576.584 59.3945 576.453 59.0469 576.332C58.5469 576.156 58.1094 575.959 57.7344 575.74C57.3633 575.518 57.0742 575.244 56.8672 574.92C56.6641 574.592 56.5625 574.184 56.5625 573.695C56.5625 573.215 56.6719 572.799 56.8906 572.447C57.1133 572.096 57.4219 571.824 57.8164 571.633C58.2109 571.441 58.6719 571.346 59.1992 571.346C59.6055 571.346 59.9707 571.406 60.2949 571.527C60.623 571.648 60.9023 571.826 61.1328 572.061C61.3633 572.295 61.5391 572.584 61.6602 572.928C61.7852 573.268 61.8477 573.658 61.8477 574.1H60.4414C60.4414 573.85 60.4121 573.627 60.3535 573.432C60.2988 573.232 60.2168 573.064 60.1074 572.928C59.998 572.787 59.8652 572.68 59.709 572.605C59.5566 572.531 59.3828 572.494 59.1875 572.494C58.9102 572.494 58.6816 572.547 58.502 572.652C58.3223 572.754 58.1895 572.895 58.1035 573.074C58.0215 573.254 57.9805 573.459 57.9805 573.689C57.9805 573.912 58.0234 574.107 58.1094 574.275C58.1953 574.443 58.3418 574.596 58.5488 574.732C58.7598 574.865 59.0488 575 59.416 575.137C59.9199 575.316 60.3555 575.518 60.7227 575.74C61.0938 575.959 61.3789 576.23 61.5781 576.555C61.7812 576.875 61.8828 577.279 61.8828 577.768C61.8828 578.271 61.7656 578.699 61.5312 579.051C61.3008 579.402 60.9766 579.67 60.5586 579.854C60.1445 580.033 59.6621 580.123 59.1113 580.123C58.7637 580.123 58.418 580.078 58.0742 579.988C57.7344 579.895 57.4258 579.742 57.1484 579.531C56.8711 579.32 56.6504 579.041 56.4863 578.693C56.3223 578.342 56.2402 577.912 56.2402 577.404H57.6582C57.6582 577.709 57.6992 577.963 57.7812 578.166C57.8633 578.369 57.9746 578.529 58.1152 578.646C58.2559 578.764 58.4121 578.848 58.584 578.898C58.7598 578.949 58.9355 578.975 59.1113 578.975C59.4043 578.975 59.6504 578.926 59.8496 578.828C60.0527 578.727 60.2051 578.586 60.3066 578.406C60.4121 578.223 60.4648 578.014 60.4648 577.779Z" fill="#5CC3FF"/>
<g clip-path="url(#clip1_104_323)">
<path d="M268.5 65.1073C271.03 65.1073 273.088 63.2016 273.088 60.8593C273.088 58.5169 271.03 56.6112 268.5 56.6112C265.97 56.6112 263.912 58.5169 263.912 60.8593C263.912 63.2016 265.97 65.1073 268.5 65.1073ZM268.5 58.076C270.157 58.076 271.506 59.3246 271.506 60.8593C271.506 62.3939 270.157 63.6425 268.5 63.6425C266.843 63.6425 265.494 62.3939 265.494 60.8593C265.494 59.3246 266.843 58.076 268.5 58.076Z" fill="#5CC3FF"/>
<path d="M277.781 65.1073C279.381 65.1073 280.682 63.9026 280.682 62.4218C280.682 60.9409 279.381 59.7362 277.781 59.7362C276.182 59.7362 274.881 60.9409 274.881 62.4218C274.881 63.9026 276.182 65.1073 277.781 65.1073ZM277.781 61.201C278.508 61.201 279.1 61.7487 279.1 62.4218C279.1 63.0948 278.508 63.6425 277.781 63.6425C277.054 63.6425 276.463 63.0948 276.463 62.4218C276.463 61.7487 277.054 61.201 277.781 61.201Z" fill="#5CC3FF"/>
<path d="M278.419 66.7675H277.196C275.754 66.7675 274.51 67.5561 273.943 68.6889C272.775 67.5088 271.098 66.7675 269.237 66.7675H267.763C265.902 66.7675 264.225 67.5088 263.057 68.6889C262.49 67.5561 261.246 66.7675 259.804 66.7675H258.581C256.606 66.7675 255 68.2458 255 70.0629V75.3954C255 76.1843 255.696 76.826 256.551 76.826H261.388C261.469 77.7001 262.263 78.3885 263.228 78.3885H273.772C274.737 78.3885 275.531 77.7001 275.612 76.826H280.394C281.279 76.826 282 76.1615 282 75.3446V70.0629C282 68.2458 280.394 66.7675 278.419 66.7675V66.7675ZM256.582 70.0629C256.582 69.0535 257.479 68.2323 258.581 68.2323H259.804C260.906 68.2323 261.803 69.0535 261.803 70.0629V70.5644C261.271 71.8468 261.381 72.6154 261.381 75.3612H256.582V70.0629ZM274.037 76.6785C274.037 76.8137 273.918 76.9237 273.772 76.9237H263.228C263.082 76.9237 262.963 76.8137 262.963 76.6785V72.6767C262.963 70.2261 265.116 68.2323 267.763 68.2323H269.237C271.884 68.2323 274.037 70.226 274.037 72.6767V76.6785ZM280.418 75.3446C280.418 75.3698 280.713 75.3612 275.619 75.3612C275.619 72.595 275.728 71.8447 275.197 70.5644V70.0629C275.197 69.0535 276.094 68.2323 277.196 68.2323H278.419C279.521 68.2323 280.418 69.0535 280.418 70.0629V75.3446Z" fill="#5CC3FF"/>
<path d="M259.219 65.1073C260.818 65.1073 262.119 63.9026 262.119 62.4218C262.119 60.9409 260.818 59.7362 259.219 59.7362C257.619 59.7362 256.318 60.9409 256.318 62.4218C256.318 63.9026 257.619 65.1073 259.219 65.1073ZM259.219 61.201C259.946 61.201 260.537 61.7487 260.537 62.4218C260.537 63.0948 259.946 63.6425 259.219 63.6425C258.492 63.6425 257.9 63.0948 257.9 62.4218C257.9 61.7487 258.492 61.201 259.219 61.201Z" fill="#5CC3FF"/>
</g>
<path d="M73.25 268.193C72.836 268.193 72.5 268.503 72.5 268.884V273.718H51.5V268.884C51.5 268.503 51.164 268.193 50.75 268.193C50.3361 268.193 50 268.503 50 268.884V274.409C50 274.79 50.336 275.099 50.75 275.099H73.25C73.664 275.099 74 274.79 74 274.409V268.884C74.0001 268.503 73.664 268.193 73.25 268.193Z" fill="#5CC3FF"/>
<path d="M61.4532 269.372C61.7449 269.638 62.2332 269.641 62.5249 269.372L67.7742 264.607C68.0704 264.337 68.0697 263.9 67.7742 263.63C67.4787 263.36 66.9987 263.36 66.7032 263.63L62.7469 267.221V253.691C62.7469 253.309 62.4079 253 61.9894 253C61.5709 253 61.2319 253.309 61.2319 253.691V267.221L57.2756 263.63C56.9793 263.36 56.5001 263.36 56.2046 263.63C55.9084 263.9 55.9084 264.337 56.2046 264.607L61.4532 269.372Z" fill="#5CC3FF"/>
<path d="M129 199.877C129 196.717 127.086 193.546 127.004 193.413C126.849 193.158 126.556 193 126.238 193C125.921 193 125.628 193.158 125.472 193.413C125.391 193.546 123.477 196.717 123.477 199.877C123.477 200.945 124.196 201.861 125.212 202.237C125.114 202.723 124.979 203.415 124.828 204.269H124.355C121.722 204.269 119.586 202.307 119.586 199.877C119.586 196.558 116.67 193.867 113.059 193.867C105.293 193.867 99 199.652 99 206.812C99 213.963 105.283 219.757 113.059 219.757C117.104 219.757 120.901 218.153 123.538 215.441C123.499 216.317 123.477 217.201 123.477 218.081C123.477 219.483 124.715 220.624 126.238 220.624C127.761 220.624 129 219.483 129 218.081C129 211.429 127.728 204.528 127.265 202.237C128.281 201.861 129 200.945 129 199.877V199.877ZM123.737 212.438C121.544 215.959 117.47 218.138 113.059 218.138C106.276 218.138 100.758 213.057 100.758 206.812C100.758 200.566 106.276 195.485 113.059 195.485C115.693 195.485 117.828 197.448 117.828 199.877C117.828 202.516 119.974 205.888 124.552 205.888C124.193 208.127 123.919 210.326 123.737 212.438V212.438ZM126.238 219.005C125.685 219.005 125.234 218.591 125.234 218.081C125.234 213.897 125.75 209.605 126.238 206.476C126.727 209.604 127.242 213.894 127.242 218.081C127.242 218.591 126.792 219.005 126.238 219.005V219.005ZM126.238 200.802C125.685 200.802 125.234 200.387 125.234 199.877C125.234 198.382 125.761 196.831 126.239 195.73C126.717 196.829 127.242 198.377 127.242 199.877C127.242 200.387 126.792 200.802 126.238 200.802Z" fill="#5CC3FF"/>
<path d="M113.059 197.334C111.537 197.334 110.298 198.475 110.298 199.877C110.298 201.279 111.537 202.42 113.059 202.42C114.582 202.42 115.821 201.279 115.821 199.877C115.821 198.475 114.582 197.334 113.059 197.334ZM113.059 200.801C112.506 200.801 112.055 200.387 112.055 199.877C112.055 199.367 112.506 198.953 113.059 198.953C113.613 198.953 114.063 199.367 114.063 199.877C114.063 200.387 113.613 200.801 113.059 200.801Z" fill="#5CC3FF"/>
<path d="M113.059 211.203C111.537 211.203 110.298 212.344 110.298 213.746C110.298 215.148 111.537 216.289 113.059 216.289C114.582 216.289 115.821 215.148 115.821 213.746C115.821 212.344 114.582 211.203 113.059 211.203ZM113.059 214.671C112.506 214.671 112.055 214.256 112.055 213.746C112.055 213.237 112.506 212.822 113.059 212.822C113.613 212.822 114.063 213.237 114.063 213.746C114.063 214.256 113.613 214.671 113.059 214.671Z" fill="#5CC3FF"/>
<path d="M106.535 200.802C105.012 200.802 103.774 201.943 103.774 203.345C103.774 204.747 105.012 205.888 106.535 205.888C108.058 205.888 109.297 204.747 109.297 203.345C109.297 201.943 108.058 200.802 106.535 200.802ZM106.535 204.27C105.982 204.27 105.531 203.855 105.531 203.345C105.531 202.835 105.982 202.421 106.535 202.421C107.089 202.421 107.539 202.835 107.539 203.345C107.539 203.855 107.089 204.27 106.535 204.27Z" fill="#5CC3FF"/>
<path d="M119.582 207.736C118.059 207.736 116.82 208.877 116.82 210.279C116.82 211.681 118.059 212.822 119.582 212.822C121.104 212.822 122.343 211.681 122.343 210.279C122.343 208.877 121.104 207.736 119.582 207.736ZM119.582 211.204C119.028 211.204 118.578 210.789 118.578 210.279C118.578 209.77 119.028 209.355 119.582 209.355C120.135 209.355 120.585 209.77 120.585 210.279C120.585 210.789 120.135 211.204 119.582 211.204Z" fill="#5CC3FF"/>
<path d="M106.535 207.736C105.012 207.736 103.774 208.877 103.774 210.279C103.774 211.681 105.012 212.822 106.535 212.822C108.058 212.822 109.297 211.681 109.297 210.279C109.297 208.877 108.058 207.736 106.535 207.736ZM106.535 211.204C105.982 211.204 105.531 210.789 105.531 210.279C105.531 209.77 105.982 209.355 106.535 209.355C107.089 209.355 107.539 209.77 107.539 210.279C107.539 210.789 107.089 211.204 106.535 211.204Z" fill="#5CC3FF"/>
<g clip-path="url(#clip2_104_323)">
<path d="M30.1398 43.3889C30.3364 43.6333 35.0192 49.3735 41.0001 49.3735C46.981 49.3735 51.6641 43.6333 51.8604 43.3891C52.0465 43.1573 52.0465 42.8428 51.8604 42.6109C51.6641 42.3665 46.981 36.6263 41.0001 36.6263C35.0192 36.6263 30.3364 42.3665 30.1398 42.6107C29.9534 42.8425 29.9534 43.1573 30.1398 43.3889ZM41.0001 37.945C45.4057 37.945 49.2213 41.7548 50.3509 43.0004C49.2228 44.247 45.4151 48.0549 41.0001 48.0549C36.5948 48.0549 32.7794 44.2456 31.6494 42.9995C32.7774 41.7529 36.5851 37.945 41.0001 37.945Z" fill="#202124"/>
<path d="M41.0003 46.9557C43.3997 46.9557 45.3519 45.181 45.3519 42.9996C45.3519 40.8183 43.3997 39.0436 41.0003 39.0436C38.6008 39.0436 36.6486 40.8183 36.6486 42.9996C36.6486 45.181 38.6008 46.9557 41.0003 46.9557ZM41.0003 40.3623C42.6 40.3623 43.9013 41.5454 43.9013 42.9996C43.9013 44.4539 42.6 45.637 41.0003 45.637C39.4006 45.637 38.0992 44.4539 38.0992 42.9996C38.0992 41.5454 39.4005 40.3623 41.0003 40.3623Z" fill="#202124"/>
</g>
<path d="M12.25 151.5H13.75H25.75" stroke="#9E9FA3"/>
<path d="M15.9996 151.5V150C15.9996 149.602 16.1577 149.221 16.439 148.94C16.7203 148.658 17.1018 148.5 17.4996 148.5H20.4996C20.8975 148.5 21.279 148.658 21.5603 148.94C21.8416 149.221 21.9996 149.602 21.9996 150V151.5M24.2496 151.5V162C24.2496 162.398 24.0916 162.78 23.8103 163.061C23.529 163.342 23.1475 163.5 22.7496 163.5H15.2496C14.8518 163.5 14.4703 163.342 14.189 163.061C13.9077 162.78 13.7496 162.398 13.7496 162V151.5H24.2496Z" stroke="#9E9FA3"/>
<path d="M20.4996 155.25V159.75" stroke="#9E9FA3"/>
<path d="M17.5004 155.25V159.75" stroke="#9E9FA3"/>
<circle cx="6.07588" cy="6.07588" r="3.57588" transform="matrix(-1 0 0 1 259.152 17)" fill="white" stroke="black" stroke-width="5"/>
<path d="M251.609 11.7863H251.699L256.049 10.9501C256.133 10.9377 256.212 10.903 256.274 10.8506L263.643 4.34027C264.181 3.86571 264.482 3.22025 264.477 2.54845C264.478 1.87144 264.178 1.22106 263.643 0.736713C263.106 0.261132 262.375 -0.00421011 261.615 9.60318e-05C260.85 -0.00588684 260.116 0.267915 259.587 0.756643L252.24 7.26692C252.175 7.31299 252.128 7.37552 252.105 7.4461L251.159 11.2886C251.133 11.4265 251.183 11.5671 251.294 11.6669C251.377 11.7419 251.49 11.7848 251.609 11.7863ZM261.615 0.796465C262.698 0.796389 263.575 1.57184 263.576 2.52845C263.576 2.53512 263.575 2.54179 263.575 2.54845C263.583 3.00418 263.379 3.44284 263.012 3.7629L260.24 1.29415C260.605 0.97355 261.1 0.794445 261.615 0.796465ZM259.609 1.87155L262.381 4.32037L255.958 9.97456L253.187 7.54564L259.609 1.87155ZM252.826 8.34204L255.057 10.313L252.195 10.8705L252.826 8.34204Z" fill="#A6A9B4"/>
<g filter="url(#filter2_bd_104_323)">
<path d="M196.718 102V177.22H141V129.929L168.894 102H196.718Z" fill="white" fill-opacity="0.6" shape-rendering="crispEdges"/>
<path d="M196.718 102V177.22H141V129.929L168.894 102H196.718Z" stroke="#B0AEAE" stroke-dasharray="3 3" shape-rendering="crispEdges"/>
</g>
<path d="M168.859 102L141 129.859" stroke="#B0AEAE" stroke-dasharray="3 3"/>
<g filter="url(#filter3_bd_104_323)">
<path d="M208 111.641V186.861H152.282V139.57L180.176 111.641H208Z" fill="white" fill-opacity="0.6" shape-rendering="crispEdges"/>
<path d="M208 111.641V186.861H152.282V139.57L180.176 111.641H208Z" stroke="black" shape-rendering="crispEdges"/>
</g>
<path d="M180.141 111.641L152.282 139.5" stroke="black"/>
<mask id="mask1_104_323" style="mask-type:alpha" maskUnits="userSpaceOnUse" x="166" y="135" width="33" height="34">
<rect x="166.043" y="135.565" width="32.1668" height="32.5928" fill="#D9D9D9"/>
</mask>
<g mask="url(#mask1_104_323)">
<path d="M172.377 145.9L171.808 145.352L173.65 143.543C174.164 143.048 174.745 142.682 175.393 142.446C176.04 142.209 176.71 142.09 177.403 142.09C178.073 142.09 178.732 142.214 179.38 142.462C180.028 142.71 180.609 143.07 181.122 143.543L183.635 145.964C184.06 146.374 184.551 146.691 185.109 146.917C185.668 147.143 186.238 147.256 186.818 147.256C187.421 147.256 187.997 147.143 188.544 146.917C189.091 146.691 189.577 146.374 190.002 145.964L191.878 144.221L192.447 144.77L190.605 146.578C190.091 147.073 189.504 147.439 188.846 147.676C188.187 147.913 187.511 148.031 186.818 148.031C186.126 148.031 185.45 147.913 184.791 147.676C184.132 147.439 183.546 147.073 183.032 146.578L180.519 144.157C180.095 143.748 179.609 143.43 179.062 143.204C178.515 142.978 177.962 142.865 177.403 142.865C176.822 142.865 176.258 142.973 175.711 143.188C175.164 143.404 174.678 143.726 174.253 144.157L172.377 145.9ZM172.377 151.582L171.808 151.034L173.65 149.226C174.164 148.73 174.745 148.364 175.393 148.128C176.04 147.891 176.71 147.773 177.403 147.773C178.073 147.773 178.732 147.897 179.38 148.144C180.028 148.392 180.609 148.752 181.122 149.226L183.635 151.647C184.06 152.056 184.551 152.373 185.109 152.599C185.668 152.825 186.238 152.938 186.818 152.938C187.421 152.938 187.997 152.825 188.544 152.599C189.091 152.373 189.577 152.056 190.002 151.647L191.878 149.904L192.447 150.42L190.605 152.26C190.091 152.755 189.504 153.121 188.846 153.358C188.187 153.595 187.511 153.713 186.818 153.713C186.126 153.713 185.45 153.595 184.791 153.358C184.132 153.121 183.546 152.755 183.032 152.26L180.519 149.807C180.095 149.398 179.609 149.086 179.062 148.87C178.515 148.655 177.962 148.548 177.403 148.548C176.822 148.548 176.258 148.65 175.711 148.854C175.164 149.058 174.678 149.376 174.253 149.807L172.377 151.582ZM172.377 157.265L171.808 156.715L173.65 154.908C174.164 154.413 174.745 154.036 175.393 153.778C176.04 153.52 176.71 153.391 177.403 153.391C178.073 153.391 178.732 153.525 179.38 153.794C180.028 154.063 180.609 154.434 181.122 154.908L183.635 157.329C184.06 157.738 184.551 158.061 185.109 158.298C185.668 158.534 186.238 158.653 186.818 158.653C187.421 158.653 187.997 158.534 188.544 158.298C189.091 158.061 189.577 157.738 190.002 157.329L191.878 155.586L192.447 156.103L190.605 157.943C190.091 158.438 189.504 158.809 188.846 159.056C188.187 159.304 187.511 159.427 186.818 159.427C186.126 159.427 185.45 159.304 184.791 159.056C184.132 158.809 183.546 158.438 183.032 157.943L180.519 155.489C180.095 155.059 179.609 154.73 179.062 154.504C178.515 154.278 177.962 154.165 177.403 154.165C176.822 154.165 176.258 154.273 175.711 154.488C175.164 154.703 174.678 155.037 174.253 155.489L172.377 157.265Z" fill="#313131"/>
</g>
<path d="M180 277L180 243" stroke="black" stroke-dasharray="2 2"/>
<path d="M180 230L180 187" stroke="#C5C5C5" stroke-dasharray="2 2"/>
<path d="M180 240.5C177.515 240.5 175.5 238.485 175.5 236C175.5 233.515 177.515 231.5 180 231.5C182.485 231.5 184.5 233.515 184.5 236C184.5 238.485 182.485 240.5 180 240.5Z" fill="white" stroke="#5CC3FF" stroke-width="3"/>
<path d="M179.5 289.5C176.739 289.5 174.5 287.261 174.5 284.5C174.5 281.739 176.739 279.5 179.5 279.5C182.261 279.5 184.5 281.739 184.5 284.5C184.5 287.261 182.261 289.5 179.5 289.5Z" fill="white" stroke="#E0E0E0" stroke-width="5"/>
<path d="M179 520L179 554" stroke="black" stroke-dasharray="2 2"/>
<path d="M293 431H259" stroke="black" stroke-dasharray="2 2"/>
<path d="M179 567L179 610" stroke="#C5C5C5" stroke-dasharray="2 2"/>
<path d="M168 694L168 737" stroke="#C5C5C5" stroke-dasharray="2 2"/>
<path d="M179 556.5C181.485 556.5 183.5 558.515 183.5 561C183.5 563.485 181.485 565.5 179 565.5C176.515 565.5 174.5 563.485 174.5 561C174.5 558.515 176.515 556.5 179 556.5Z" fill="white" stroke="#5CC3FF" stroke-width="3"/>
<path d="M135.5 663H106.5L66 622.5" stroke="#C8C8C8" stroke-dasharray="2 2"/>
<path d="M41 67.5C38.5147 67.5 36.5 65.4853 36.5 63C36.5 60.5147 38.5147 58.5 41 58.5C43.4853 58.5 45.5 60.5147 45.5 63C45.5 65.4853 43.4853 67.5 41 67.5Z" fill="white" stroke="black" stroke-width="3"/>
<path d="M179.5 507.5C182.261 507.5 184.5 509.739 184.5 512.5C184.5 515.261 182.261 517.5 179.5 517.5C176.739 517.5 174.5 515.261 174.5 512.5C174.5 509.739 176.739 507.5 179.5 507.5Z" fill="white" stroke="black" stroke-width="5"/>
<path d="M251.5 561.5V621L300 664V750.5" stroke="#C8C8C8" stroke-dasharray="2 2"/>
<circle cx="251.5" cy="621.5" r="3" fill="white" stroke="black" stroke-width="3"/>
<circle cx="299.5" cy="663.5" r="3" fill="white" stroke="#5CC3FF" stroke-width="3"/>
<path d="M251.5 258V198.5L300 155.5V69L258 28" stroke="#C8C8C8" stroke-dasharray="2 2"/>
<circle cx="4.5" cy="4.5" r="3" transform="matrix(1 0 0 -1 247 202.5)" fill="white" stroke="black" stroke-width="3"/>
<circle cx="4.5" cy="4.5" r="3.5" transform="matrix(1 0 0 -1 247 267)" fill="white" stroke="black" stroke-width="2"/>
<circle cx="4.5" cy="4.5" r="3" transform="matrix(1 0 0 -1 295 160.5)" fill="white" stroke="#5CC3FF" stroke-width="3"/>
<path d="M89.5 258V198.5L41 155.5V69" stroke="#C8C8C8" stroke-dasharray="2 2"/>
<circle cx="89.5" cy="198" r="3" transform="rotate(180 89.5 198)" fill="white" stroke="black" stroke-width="3"/>
<circle cx="89.5" cy="262.5" r="3.5" transform="rotate(180 89.5 262.5)" fill="white" stroke="black" stroke-width="2"/>
<circle cx="41.5" cy="156" r="3" transform="rotate(180 41.5 156)" fill="white" stroke="#5CC3FF" stroke-width="3"/>
<path d="M44 702L44 750" stroke="#C8C8C8" stroke-dasharray="2 2"/>
<circle cx="4.5" cy="4.5" r="3" transform="matrix(-1 0 0 1 50 587)" fill="white" stroke="black" stroke-width="3"/>
<circle cx="4.5" cy="4.5" r="3" transform="matrix(-1 0 0 1 49 694)" fill="white" stroke="#5CC3FF" stroke-width="3"/>
<circle cx="4.5" cy="4.5" r="3" transform="matrix(-1 0 0 1 49 741)" fill="white" stroke="black" stroke-width="3"/>
<circle cx="300.5" cy="753.5" r="3" fill="white" stroke="#DFDFDF" stroke-width="3"/>
<g clip-path="url(#clip3_104_323)">
<path d="M306.5 765.604C305.673 765.604 305 764.985 305 764.223C305 763.461 305.673 762.842 306.5 762.842C307.327 762.842 308 763.461 308 764.223C308 764.985 307.327 765.604 306.5 765.604ZM306.5 763.763C306.224 763.763 306 763.969 306 764.223C306 764.477 306.224 764.683 306.5 764.683C306.776 764.683 307 764.477 307 764.223C307 763.969 306.776 763.763 306.5 763.763Z" fill="#B3B3B3"/>
<path d="M311.5 775.733C311.372 775.733 311.244 775.688 311.147 775.598L303.146 768.231C303.053 768.145 303 768.028 303 767.906V761.46C303 761.206 303.224 761 303.5 761H310.5C310.633 761 310.76 761.049 310.854 761.135L318.854 768.501C319.049 768.681 319.049 768.972 318.854 769.152L311.854 775.598C311.756 775.688 311.628 775.733 311.5 775.733V775.733ZM304 767.715L311.5 774.621L317.793 768.827L310.293 761.921H304V767.715Z" fill="#B3B3B3"/>
</g>
<circle cx="168.355" cy="741.355" r="4.85501" fill="white" stroke="#5CC3FF" stroke-width="5"/>
<path d="M106 660.5C107.381 660.5 108.5 661.619 108.5 663C108.5 664.381 107.381 665.5 106 665.5C104.619 665.5 103.5 664.381 103.5 663C103.5 661.619 104.619 660.5 106 660.5Z" fill="white" stroke="black" stroke-width="3"/>
<path d="M299.5 141.938L304.171 144.224L309.09 145.911L310.776 150.829L313.062 155.5L310.776 160.171L309.09 165.09L304.171 166.777L299.5 169.063L294.829 166.777L289.91 165.09L288.223 160.171L285.938 155.5L288.223 150.829L289.91 145.911L294.829 144.224L299.5 141.938Z" stroke="#5CC3FF" stroke-width="0.8"/>
<path d="M299.499 145.806L302.838 147.439L306.354 148.645L307.56 152.161L309.194 155.5L307.56 158.839L306.354 162.355L302.838 163.561L299.499 165.194L296.161 163.561L292.645 162.355L291.439 158.839L289.805 155.5L291.439 152.161L292.645 148.645L296.161 147.439L299.499 145.806Z" stroke="#5CC3FF" stroke-width="0.8"/>
<path d="M299.5 168.76V142.322" stroke="#5CC3FF" stroke-width="0.8"/>
<path d="M312.719 155.541H286.28" stroke="#5CC3FF" stroke-width="0.8"/>
<path d="M308.847 164.889L290.152 146.194" stroke="#5CC3FF" stroke-width="0.8"/>
<path d="M290.151 164.889L308.846 146.194" stroke="#5CC3FF" stroke-width="0.8"/>
<path d="M158 758L180 758L169 784L158 758ZM159.545 758.997L169 781.418L178.5 758.997L170.864 758.997L169 767.195L167.182 758.997L159.545 758.997Z" fill="#5CC3FF"/>
<path d="M329.75 425.309C329.046 425.309 328.444 425.059 327.942 424.558C327.441 424.056 327.191 423.454 327.191 422.75C327.191 422.019 327.434 421.409 327.922 420.922C328.409 420.434 329.019 420.191 329.75 420.191C330.454 420.191 331.057 420.434 331.558 420.922C332.059 421.409 332.309 422.019 332.309 422.75C332.309 423.454 332.066 424.056 331.578 424.558C331.091 425.059 330.481 425.309 329.75 425.309ZM322.803 440.747C322.803 440.368 322.945 440.043 323.229 439.772C323.514 439.501 323.832 439.366 324.185 439.366H329.06C329.06 437.66 328.647 436.062 327.82 434.572C326.994 433.082 325.864 431.863 324.428 430.916C323.047 429.995 321.964 428.816 321.178 427.381C320.393 425.946 320 424.402 320 422.75C320 420.041 320.948 417.739 322.844 415.844C324.739 413.948 327.041 413 329.75 413C332.459 413 334.761 413.948 336.656 415.844C338.552 417.739 339.5 420.041 339.5 422.75C339.5 424.429 339.107 425.993 338.322 427.442C337.536 428.891 336.439 430.063 335.032 430.957C333.569 431.85 332.438 433.042 331.64 434.531C330.84 436.021 330.44 437.632 330.44 439.366H335.315C335.695 439.366 336.013 439.501 336.271 439.772C336.528 440.043 336.656 440.368 336.656 440.747H322.803ZM329.75 431.118C332.079 431.118 334.056 430.306 335.681 428.681C337.306 427.056 338.118 425.079 338.118 422.75C338.118 420.421 337.306 418.444 335.681 416.819C334.056 415.194 332.079 414.382 329.75 414.382C327.421 414.382 325.444 415.194 323.819 416.819C322.194 418.444 321.382 420.421 321.382 422.75C321.382 425.079 322.194 427.056 323.819 428.681C325.444 430.306 327.421 431.118 329.75 431.118Z" fill="#D2CDCD"/>
<circle cx="299.5" cy="430.5" r="4" fill="white" stroke="#C0C0C0" stroke-width="3"/>
<circle cx="2" cy="2" r="2" transform="matrix(-1 0 0 1 260 429)" fill="black"/>
<circle cx="2" cy="2" r="2" transform="matrix(-1 0 0 1 136 661)" fill="black"/>
<circle cx="5.5" cy="5.5" r="4" transform="matrix(-1 0 0 1 304 66)" fill="white" stroke="black" stroke-width="3"/>
<path d="M91 366C87.6458 366 87.2212 372 83.4 372C79.5788 372 79.5788 366 75.8 366C72.0212 366 71.4268 372 68.2 372C64.9732 372 64.2939 366 60.6 366C56.9061 366 56.4816 372 53 372" stroke="#5A5A5A" stroke-width="0.5"/>
<circle cx="26.5" cy="26.5" r="26.25" transform="matrix(-1 0 0 1 53 345)" stroke="black" stroke-width="0.5" stroke-dasharray="3 3"/>
<mask id="mask2_104_323" style="mask-type:alpha" maskUnits="userSpaceOnUse" x="12" y="356" width="30" height="30">
<rect x="12" y="356" width="30" height="30" fill="#D9D9D9"/>
</mask>
<g mask="url(#mask2_104_323)">
<path d="M21.9057 373.344C21.6767 373.344 21.4737 373.255 21.2967 373.078C21.1197 372.901 21.0312 372.698 21.0312 372.469C21.0312 372.24 21.1197 372.036 21.2967 371.859C21.4737 371.682 21.6767 371.594 21.9057 371.594C22.1352 371.594 22.3384 371.682 22.5154 371.859C22.6924 372.036 22.7809 372.24 22.7809 372.469C22.7809 372.698 22.6924 372.901 22.5154 373.078C22.3384 373.255 22.1352 373.344 21.9057 373.344ZM27.0312 373.344C26.8017 373.344 26.5984 373.255 26.4214 373.078C26.2444 372.901 26.1559 372.698 26.1559 372.469C26.1559 372.24 26.2444 372.036 26.4214 371.859C26.5984 371.682 26.8017 371.594 27.0312 371.594C27.2602 371.594 27.4632 371.682 27.6402 371.859C27.8172 372.036 27.9057 372.24 27.9057 372.469C27.9057 372.698 27.8172 372.901 27.6402 373.078C27.4632 373.255 27.2602 373.344 27.0312 373.344ZM32.0937 373.344C31.8642 373.344 31.6609 373.255 31.4839 373.078C31.3069 372.901 31.2184 372.698 31.2184 372.469C31.2184 372.24 31.3069 372.036 31.4839 371.859C31.6609 371.682 31.8642 371.594 32.0937 371.594C32.3227 371.594 32.5257 371.682 32.7027 371.859C32.8797 372.036 32.9682 372.24 32.9682 372.469C32.9682 372.698 32.8797 372.901 32.7027 373.078C32.5257 373.255 32.3227 373.344 32.0937 373.344ZM19.1247 381.875C18.6247 381.875 18.2079 381.708 17.8744 381.375C17.5414 381.042 17.3749 380.625 17.3749 380.125V364.25C17.3749 363.75 17.5414 363.333 17.8744 363C18.2079 362.667 18.6247 362.5 19.1247 362.5H21.7812V359.75H22.6872V362.5H31.4374V359.75H32.2182V362.5H34.8747C35.3747 362.5 35.7914 362.667 36.1249 363C36.4579 363.333 36.6244 363.75 36.6244 364.25V380.125C36.6244 380.625 36.4579 381.042 36.1249 381.375C35.7914 381.708 35.3747 381.875 34.8747 381.875H19.1247ZM19.1247 381.125H34.8747C35.1247 381.125 35.3539 381.021 35.5624 380.812C35.7704 380.604 35.8744 380.375 35.8744 380.125V369.438H18.1249V380.125C18.1249 380.375 18.2289 380.604 18.4369 380.812C18.6454 381.021 18.8747 381.125 19.1247 381.125ZM18.1249 368.688H35.8744V364.25C35.8744 364 35.7704 363.771 35.5624 363.562C35.3539 363.354 35.1247 363.25 34.8747 363.25H19.1247C18.8747 363.25 18.6454 363.354 18.4369 363.562C18.2289 363.771 18.1249 364 18.1249 364.25V368.688Z" fill="#1C1B1F"/>
</g>
<circle cx="2" cy="2" r="2" transform="matrix(-1 0 0 1 94 364)" fill="black"/>
<defs>
<filter id="filter0_bd_104_323" x="67.7818" y="568.5" width="224.718" height="244.22" filterUnits="userSpaceOnUse" color-interpolation-filters="sRGB">
<feFlood flood-opacity="0" result="BackgroundImageFix"/>
<feGaussianBlur in="BackgroundImageFix" stdDeviation="12.5"/>
<feComposite in2="SourceAlpha" operator="in" result="effect1_backgroundBlur_104_323"/>
<feColorMatrix in="SourceAlpha" type="matrix" values="0 0 0 0 0 0 0 0 0 0 0 0 0 0 0 0 0 0 127 0" result="hardAlpha"/>
<feOffset dy="44"/>
<feGaussianBlur stdDeviation="42"/>
<feComposite in2="hardAlpha" operator="out"/>
<feColorMatrix type="matrix" values="0 0 0 0 0 0 0 0 0 0 0 0 0 0 0 0 0 0 0.03 0"/>
<feBlend mode="normal" in2="effect1_backgroundBlur_104_323" result="effect2_dropShadow_104_323"/>
<feBlend mode="normal" in="SourceGraphic" in2="effect2_dropShadow_104_323" result="shape"/>
</filter>
<filter id="filter1_bd_104_323" x="56.5" y="578.141" width="224.718" height="244.22" filterUnits="userSpaceOnUse" color-interpolation-filters="sRGB">
<feFlood flood-opacity="0" result="BackgroundImageFix"/>
<feGaussianBlur in="BackgroundImageFix" stdDeviation="12.5"/>
<feComposite in2="SourceAlpha" operator="in" result="effect1_backgroundBlur_104_323"/>
<feColorMatrix in="SourceAlpha" type="matrix" values="0 0 0 0 0 0 0 0 0 0 0 0 0 0 0 0 0 0 127 0" result="hardAlpha"/>
<feOffset dy="44"/>
<feGaussianBlur stdDeviation="42"/>
<feComposite in2="hardAlpha" operator="out"/>
<feColorMatrix type="matrix" values="0 0 0 0 0 0 0 0 0 0 0 0 0 0 0 0 0 0 0.03 0"/>
<feBlend mode="normal" in2="effect1_backgroundBlur_104_323" result="effect2_dropShadow_104_323"/>
<feBlend mode="normal" in="SourceGraphic" in2="effect2_dropShadow_104_323" result="shape"/>
</filter>
<filter id="filter2_bd_104_323" x="56.5001" y="61.5" width="224.718" height="244.219" filterUnits="userSpaceOnUse" color-interpolation-filters="sRGB">
<feFlood flood-opacity="0" result="BackgroundImageFix"/>
<feGaussianBlur in="BackgroundImageFix" stdDeviation="12.5"/>
<feComposite in2="SourceAlpha" operator="in" result="effect1_backgroundBlur_104_323"/>
<feColorMatrix in="SourceAlpha" type="matrix" values="0 0 0 0 0 0 0 0 0 0 0 0 0 0 0 0 0 0 127 0" result="hardAlpha"/>
<feOffset dy="44"/>
<feGaussianBlur stdDeviation="42"/>
<feComposite in2="hardAlpha" operator="out"/>
<feColorMatrix type="matrix" values="0 0 0 0 0 0 0 0 0 0 0 0 0 0 0 0 0 0 0.03 0"/>
<feBlend mode="normal" in2="effect1_backgroundBlur_104_323" result="effect2_dropShadow_104_323"/>
<feBlend mode="normal" in="SourceGraphic" in2="effect2_dropShadow_104_323" result="shape"/>
</filter>
<filter id="filter3_bd_104_323" x="67.7818" y="71.141" width="224.718" height="244.22" filterUnits="userSpaceOnUse" color-interpolation-filters="sRGB">
<feFlood flood-opacity="0" result="BackgroundImageFix"/>
<feGaussianBlur in="BackgroundImageFix" stdDeviation="12.5"/>
<feComposite in2="SourceAlpha" operator="in" result="effect1_backgroundBlur_104_323"/>
<feColorMatrix in="SourceAlpha" type="matrix" values="0 0 0 0 0 0 0 0 0 0 0 0 0 0 0 0 0 0 127 0" result="hardAlpha"/>
<feOffset dy="44"/>
<feGaussianBlur stdDeviation="42"/>
<feComposite in2="hardAlpha" operator="out"/>
<feColorMatrix type="matrix" values="0 0 0 0 0 0 0 0 0 0 0 0 0 0 0 0 0 0 0.03 0"/>
<feBlend mode="normal" in2="effect1_backgroundBlur_104_323" result="effect2_dropShadow_104_323"/>
<feBlend mode="normal" in="SourceGraphic" in2="effect2_dropShadow_104_323" result="shape"/>
</filter>
<clipPath id="clip0_104_323">
<rect width="33.6" height="33.6" fill="white" transform="translate(307.2 623.2)"/>
</clipPath>
<clipPath id="clip1_104_323">
<rect width="27" height="25" fill="white" transform="translate(255 55)"/>
</clipPath>
<clipPath id="clip2_104_323">
<rect width="22" height="20" fill="white" transform="translate(52 53) rotate(-180)"/>
</clipPath>
<clipPath id="clip3_104_323">
<rect width="16" height="14.7327" fill="white" transform="translate(303 761)"/>
</clipPath>
</defs>
</svg>
