<svg width="31" height="30" viewBox="0 0 31 30" fill="none" xmlns="http://www.w3.org/2000/svg">
<g id="294700_apple_icon 1">
<g id="&#229;&#189;&#162;&#231;&#138;&#182;_1">
<g id="Group">
<path id="Vector" fill-rule="evenodd" clip-rule="evenodd" d="M22.8596 15.8756C22.8253 12.4605 25.6443 10.8224 25.7701 10.7401C24.1862 8.4235 21.7182 8.10562 20.8395 8.06982C18.7412 7.85625 16.7426 9.30592 15.6777 9.30592C14.6154 9.30592 12.9705 8.10088 11.2303 8.13135C8.94044 8.16562 6.83048 9.46324 5.6521 11.5129C3.27454 15.6371 5.04419 21.7498 7.36081 25.0975C8.49366 26.7335 9.84431 28.5748 11.6161 28.5074C13.3242 28.4399 13.9691 27.4024 16.0336 27.4024C18.0981 27.4024 18.6782 28.5074 20.4848 28.4726C22.3213 28.4394 23.4858 26.8051 24.6095 25.1623C25.9094 23.2615 26.445 21.4212 26.4766 21.3276C26.4369 21.3093 22.8964 19.9528 22.8596 15.8756ZM19.4648 5.85434C20.4044 4.71346 21.0412 3.12791 20.8684 1.5498C19.5119 1.60488 17.8701 2.4515 16.8966 3.59133C16.0244 4.60271 15.2614 6.21287 15.4657 7.76256C16.9784 7.8798 18.5218 6.99311 19.4648 5.85434Z" fill="#1B1B1B"/>
</g>
</g>
</g>
</svg>
