<svg width="93" height="24" viewBox="0 0 93 24" fill="none" xmlns="http://www.w3.org/2000/svg">
<g id="Group 1000004444">
<circle id="Ellipse 2729" cx="54.8591" cy="2.88732" r="2.88732" fill="#545454"/>
<circle id="Ellipse 2730" cx="54.8591" cy="11.5493" r="2.88732" fill="#5A5A5A"/>
<circle id="Ellipse 2731" cx="54.8591" cy="20.2113" r="2.88732" fill="#545454"/>
<circle id="Ellipse 2732" cx="63.5211" cy="2.88732" r="2.88732" fill="#545454"/>
<circle id="Ellipse 2733" cx="63.5211" cy="11.5493" r="2.88732" fill="#545454"/>
<circle id="Ellipse 2734" cx="63.5211" cy="20.2113" r="2.88732" fill="#545454"/>
<circle id="Ellipse 2735" cx="72.1831" cy="2.88732" r="2.88732" fill="#545454"/>
<circle id="Ellipse 2736" cx="72.1831" cy="11.5493" r="2.88732" fill="#545454"/>
<circle id="Ellipse 2737" cx="72.1831" cy="20.2113" r="2.88732" fill="#545454"/>
<circle id="Ellipse 2738" cx="80.8451" cy="2.88732" r="2.88732" fill="#545454"/>
<circle id="Ellipse 2739" cx="80.8451" cy="11.5493" r="2.88732" fill="#545454"/>
<circle id="Ellipse 2740" cx="80.8451" cy="20.2113" r="2.88732" fill="#545454"/>
<circle id="Ellipse 2741" cx="89.5071" cy="2.88732" r="2.88732" fill="#545454"/>
<circle id="Ellipse 2742" cx="89.5071" cy="11.5493" r="2.88732" fill="#545454"/>
<circle id="Ellipse 2743" cx="89.5071" cy="20.2113" r="2.88732" fill="#545454"/>
<circle id="Ellipse 2753" cx="2.88732" cy="2.88732" r="2.88732" fill="#545454"/>
<circle id="Ellipse 2754" cx="2.88732" cy="11.5493" r="2.88732" fill="#545454"/>
<circle id="Ellipse 2755" cx="2.88732" cy="20.2113" r="2.88732" fill="#545454"/>
<circle id="Ellipse 2756" cx="11.5493" cy="2.88732" r="2.88732" fill="#6C6C6C"/>
<circle id="Ellipse 2757" cx="11.5493" cy="11.5493" r="2.88732" fill="#545454"/>
<circle id="Ellipse 2758" cx="11.5493" cy="20.2113" r="2.88732" fill="#6C6C6C"/>
<circle id="Ellipse 2759" cx="20.2113" cy="2.88732" r="2.88732" fill="#848484"/>
<circle id="Ellipse 2760" cx="20.2113" cy="11.5493" r="2.88732" fill="#6C6C6C"/>
<circle id="Ellipse 2761" cx="20.2113" cy="20.2113" r="2.88732" fill="#848484"/>
<circle id="Ellipse 2762" cx="28.8732" cy="2.88732" r="2.88732" fill="#A4A4A4"/>
<circle id="Ellipse 2763" cx="28.8732" cy="11.5493" r="2.88732" fill="#848484"/>
<circle id="Ellipse 2764" cx="28.8732" cy="20.2113" r="2.88732" fill="#A4A4A4"/>
<circle id="Ellipse 2765" cx="37.5352" cy="2.88732" r="2.88732" fill="#DFDFDF"/>
<circle id="Ellipse 2766" cx="37.5352" cy="11.5493" r="2.88732" fill="#A4A4A4"/>
<circle id="Ellipse 2767" cx="37.5352" cy="20.2113" r="2.88732" fill="#DFDFDF"/>
<circle id="Ellipse 2768" cx="46.1972" cy="2.88732" r="2.88732" fill="#5A5A5A"/>
<circle id="Ellipse 2769" cx="46.1972" cy="11.5493" r="2.88732" fill="#DFDFDF"/>
<circle id="Ellipse 2770" cx="46.1972" cy="20.2113" r="2.88732" fill="#5A5A5A"/>
</g>
</svg>
