<svg width="1231" height="500" viewBox="0 0 1231 500" fill="none" xmlns="http://www.w3.org/2000/svg">
<path d="M1 299C1 297.343 2.34315 296 4 296H74C75.6569 296 77 297.343 77 299V339C77 340.657 75.6569 342 74 342H55.2112C54.4162 342 53.6538 341.684 53.0913 341.123L34.1209 322.177C33.5584 321.616 32.7959 321.3 32.0009 321.3H4C2.34315 321.3 1 319.957 1 318.3V299Z" stroke="#5E5D5D" stroke-opacity="0.1" stroke-width="0.5"/>
<path d="M245 259C239.969 259 239.332 269 233.6 269C227.868 269 227.868 259 222.2 259C216.532 259 215.64 269 210.8 269C205.96 269 204.941 259 199.4 259C193.859 259 193.222 269 188 269" stroke="#5A5A5A" stroke-width="0.5"/>
<rect x="603.193" y="236" width="16.42" height="16.42" rx="1" stroke="#5A5A5A" stroke-width="0.5"/>
<rect x="603.193" y="256.525" width="16.42" height="16.42" rx="1" stroke="#5A5A5A" stroke-width="0.5"/>
<rect x="580" y="236" width="16.42" height="16.42" rx="1" stroke="#5A5A5A" stroke-width="0.5"/>
<rect x="580" y="256.525" width="16.42" height="16.42" rx="1" stroke="#5A5A5A" stroke-width="0.5"/>
<rect x="626.387" y="236" width="16.42" height="16.42" rx="1" stroke="#5A5A5A" stroke-width="0.5"/>
<rect x="626.387" y="256.525" width="16.42" height="16.42" rx="1" stroke="#5A5A5A" stroke-width="0.5"/>
<rect x="649.58" y="236" width="16.42" height="16.42" rx="1" fill="#5CC3FF" stroke="#5CC3FF" stroke-width="0.5"/>
<rect x="649.58" y="256.525" width="16.42" height="16.42" rx="1" stroke="#5A5A5A" stroke-width="0.5"/>
<g opacity="0.99">
<path d="M350.262 323H353.542L347.578 328.964H344L350.262 323Z" fill="#5CC3FF"/>
<path d="M354.735 323H358.313L352.349 328.964H348.771L354.735 323Z" fill="#5CC3FF"/>
<path d="M359.506 323H363.084L357.12 328.964H353.542L359.506 323Z" fill="#C7C7C7"/>
<path opacity="0.73" d="M364.277 323H367.855L361.891 328.964H358.313L364.277 323Z" fill="#E6E6E6"/>
<path opacity="0.73" d="M369.422 323H373L367.036 328.964H363.458L369.422 323Z" fill="#E6E6E6"/>
<path fill-rule="evenodd" clip-rule="evenodd" d="M344 327.771L348.771 323H345.491L344 324.42V327.771Z" fill="#5CC3FF"/>
</g>
<mask id="path-17-inside-1_1_254" fill="white">
<path fill-rule="evenodd" clip-rule="evenodd" d="M537.108 351.375H708.29V174.083L671.687 137.48H537.108V351.375ZM671.894 136.98L708.79 173.876V351.375V351.875H708.29H537.108H536.608V351.375V137.48V136.98H537.108H671.894Z"/>
</mask>
<path fill-rule="evenodd" clip-rule="evenodd" d="M537.108 351.375H708.29V174.083L671.687 137.48H537.108V351.375ZM671.894 136.98L708.79 173.876V351.375V351.875H708.29H537.108H536.608V351.375V137.48V136.98H537.108H671.894Z" fill="white"/>
<path d="M708.29 351.375V351.875H708.79V351.375H708.29ZM537.108 351.375H536.608V351.875H537.108V351.375ZM708.29 174.083H708.79V173.876L708.643 173.73L708.29 174.083ZM671.687 137.48L672.04 137.127L671.894 136.98H671.687V137.48ZM537.108 137.48V136.98H536.608V137.48H537.108ZM708.79 173.876H709.29V173.669L709.143 173.523L708.79 173.876ZM671.894 136.98L672.247 136.627L672.101 136.48H671.894V136.98ZM708.79 351.875V352.375H709.29V351.875H708.79ZM536.608 351.875H536.108V352.375H536.608V351.875ZM536.608 136.98V136.48H536.108V136.98H536.608ZM708.29 350.875H537.108V351.875H708.29V350.875ZM707.79 174.083V351.375H708.79V174.083H707.79ZM671.333 137.834L707.936 174.437L708.643 173.73L672.04 137.127L671.333 137.834ZM537.108 137.98H671.687V136.98H537.108V137.98ZM537.608 351.375V137.48H536.608V351.375H537.608ZM709.143 173.523L672.247 136.627L671.54 137.334L708.436 174.23L709.143 173.523ZM709.29 351.375V173.876H708.29V351.375H709.29ZM709.29 351.875V351.375H708.29V351.875H709.29ZM708.29 352.375H708.79V351.375H708.29V352.375ZM537.108 352.375H708.29V351.375H537.108V352.375ZM536.608 352.375H537.108V351.375H536.608V352.375ZM536.108 351.375V351.875H537.108V351.375H536.108ZM536.108 137.48V351.375H537.108V137.48H536.108ZM536.108 136.98V137.48H537.108V136.98H536.108ZM537.108 136.48H536.608V137.48H537.108V136.48ZM671.894 136.48H537.108V137.48H671.894V136.48Z" fill="#020202" mask="url(#path-17-inside-1_1_254)"/>
<path d="M549.85 351.648V358.356H563.267M695.198 351.648V358.356H681.781M563.267 358.356V365.064H681.781V358.356M563.267 358.356H681.781" stroke="black" stroke-width="0.5"/>
<path d="M612.309 307V297.228H618.301V297.956H613.149V301.68H617.895V302.408H613.149V307H612.309ZM621.403 307V306.328H623.965V297.9H621.403V297.228H627.367V297.9H624.805V306.328H627.367V307H621.403ZM631.24 307V297.228H632.08V306.272H636.868V307H631.24ZM640.013 307V297.228H645.907V297.956H640.853V301.68H645.725V302.408H640.853V306.272H645.907V307H640.013ZM603.679 319.488H603.595L601.299 324.85L599.003 319.488H598.919V328H598.149V318.228H599.241L601.285 323.058H601.355L603.385 318.228H604.449V328H603.679V319.488ZM613.306 328L612.382 325.018H608.686L607.748 328H606.88L609.988 318.228H611.094L614.188 328H613.306ZM610.576 319.124H610.478L608.882 324.29H612.172L610.576 319.124ZM617.626 319.306H617.556V328H616.786V318.228H617.976L621.91 326.866H621.98V318.228H622.75V328H621.56L617.626 319.306ZM631.775 328L630.851 325.018H627.155L626.217 328H625.349L628.457 318.228H629.563L632.657 328H631.775ZM629.045 319.124H628.947L627.351 324.29H630.641L629.045 319.124ZM640.505 326.642H640.449C640.365 326.847 640.263 327.043 640.141 327.23C640.02 327.407 639.871 327.566 639.693 327.706C639.516 327.846 639.297 327.958 639.035 328.042C638.783 328.126 638.485 328.168 638.139 328.168C637.075 328.168 636.273 327.753 635.731 326.922C635.19 326.091 634.919 324.836 634.919 323.156C634.919 321.429 635.204 320.151 635.773 319.32C636.352 318.48 637.211 318.06 638.349 318.06C638.751 318.06 639.11 318.116 639.427 318.228C639.745 318.34 640.02 318.489 640.253 318.676C640.487 318.863 640.683 319.082 640.841 319.334C641.009 319.586 641.145 319.852 641.247 320.132L640.519 320.454C640.342 319.978 640.085 319.581 639.749 319.264C639.423 318.947 638.965 318.788 638.377 318.788C637.509 318.788 636.865 319.11 636.445 319.754C636.025 320.389 635.815 321.289 635.815 322.456V323.73C635.815 324.887 636.011 325.797 636.403 326.46C636.805 327.123 637.439 327.454 638.307 327.454C638.653 327.454 638.961 327.398 639.231 327.286C639.502 327.174 639.731 327.015 639.917 326.81C640.104 326.605 640.249 326.367 640.351 326.096C640.454 325.816 640.505 325.508 640.505 325.172V324.01H638.279V323.338H641.289V328H640.505V326.642ZM644.63 328V318.228H650.524V318.956H645.47V322.68H650.342V323.408H645.47V327.272H650.524V328H644.63ZM654.704 328H653.864V318.228H657.364C658.232 318.228 658.89 318.475 659.338 318.97C659.786 319.455 660.01 320.123 660.01 320.972C660.01 321.765 659.805 322.4 659.394 322.876C658.993 323.352 658.396 323.613 657.602 323.66H657.392L660.038 328H659.1L656.524 323.702H654.704V328ZM657.35 322.988C657.938 322.988 658.382 322.829 658.68 322.512C658.979 322.195 659.128 321.793 659.128 321.308V320.636C659.128 320.151 658.979 319.749 658.68 319.432C658.382 319.115 657.938 318.956 657.35 318.956H654.704V322.988H657.35Z" fill="black"/>
<g clip-path="url(#clip0_1_254)">
<path d="M1029.5 410.275H1008.5C1007.05 410.275 1005.88 409.097 1005.88 407.65V380.35C1005.88 378.903 1007.05 377.725 1008.5 377.725H1019.18C1019.88 377.725 1020.54 377.998 1021.04 378.494L1031.36 388.814C1031.85 389.31 1032.12 389.969 1032.12 390.67V407.65C1032.12 409.097 1030.95 410.275 1029.5 410.275ZM1008.5 378.775C1007.63 378.775 1006.92 379.481 1006.92 380.35V407.65C1006.92 408.519 1007.63 409.225 1008.5 409.225H1029.5C1030.37 409.225 1031.07 408.519 1031.07 407.65V390.67C1031.07 390.255 1030.91 389.849 1030.61 389.556L1020.29 379.236C1020 378.939 1019.6 378.775 1019.18 378.775H1008.5Z" fill="#1A1A1A"/>
<path d="M1017.16 406.6H1014.54V408.175H1017.16V406.6Z" fill="#1A1A1A"/>
<path d="M1014.54 408.175H1011.91V409.75H1014.54V408.175Z" fill="#1A1A1A"/>
<path d="M1017.16 403.45H1014.54V405.025H1017.16V403.45Z" fill="#1A1A1A"/>
<path d="M1014.54 405.025H1011.91V406.6H1014.54V405.025Z" fill="#1A1A1A"/>
<path d="M1017.16 400.3H1014.54V401.875H1017.16V400.3Z" fill="#1A1A1A"/>
<path d="M1014.54 401.875H1011.91V403.45H1014.54V401.875Z" fill="#1A1A1A"/>
<path d="M1017.16 397.15H1014.54V398.725H1017.16V397.15Z" fill="#1A1A1A"/>
<path d="M1014.54 398.725H1011.91V400.3H1014.54V398.725Z" fill="#1A1A1A"/>
<path d="M1017.16 394H1014.54V395.575H1017.16V394Z" fill="#1A1A1A"/>
<path d="M1014.54 395.575H1011.91V397.15H1014.54V395.575Z" fill="#1A1A1A"/>
<path d="M1016.9 384.812H1012.7C1012.41 384.812 1012.17 385.049 1012.17 385.337V391.9C1012.17 392.189 1012.41 392.425 1012.7 392.425H1016.9C1017.19 392.425 1017.42 392.189 1017.42 391.9V385.337C1017.42 385.049 1017.19 384.812 1016.9 384.812ZM1016.11 389.012H1013.49V386.125H1016.11V389.012Z" fill="#1A1A1A"/>
</g>
<path d="M983.75 35.3094C983.046 35.3094 982.444 35.0588 981.942 34.5576C981.441 34.0565 981.191 33.4539 981.191 32.75C981.191 32.0187 981.434 31.4094 981.922 30.9219C982.409 30.4344 983.019 30.1906 983.75 30.1906C984.454 30.1906 985.057 30.4344 985.558 30.9219C986.059 31.4094 986.309 32.0187 986.309 32.75C986.309 33.4539 986.066 34.0565 985.578 34.5576C985.091 35.0588 984.481 35.3094 983.75 35.3094ZM976.803 50.7465C976.803 50.3676 976.945 50.0426 977.229 49.7715C977.514 49.5012 977.832 49.3659 978.185 49.3659H983.06C983.06 47.6597 982.647 46.0617 981.82 44.5719C980.994 43.0821 979.864 41.8633 978.428 40.9156C977.047 39.9946 975.964 38.8164 975.178 37.3812C974.393 35.946 974 34.4023 974 32.75C974 30.0414 974.948 27.7395 976.844 25.8441C978.739 23.948 981.041 23 983.75 23C986.459 23 988.761 23.948 990.656 25.8441C992.552 27.7395 993.5 30.0414 993.5 32.75C993.5 34.4289 993.107 35.9929 992.322 37.4417C991.536 38.8912 990.439 40.0628 989.032 40.9566C987.569 41.8503 986.438 43.0418 985.64 44.5309C984.84 46.0207 984.44 47.6324 984.44 49.3659H989.315C989.695 49.3659 990.013 49.5012 990.271 49.7715C990.528 50.0426 990.656 50.3676 990.656 50.7465H976.803ZM983.75 41.1184C986.079 41.1184 988.056 40.3059 989.681 38.6809C991.306 37.0559 992.118 35.0789 992.118 32.75C992.118 30.421 991.306 28.4441 989.681 26.8191C988.056 25.1941 986.079 24.3816 983.75 24.3816C981.421 24.3816 979.444 25.1941 977.819 26.8191C976.194 28.4441 975.382 30.421 975.382 32.75C975.382 35.0789 976.194 37.0559 977.819 38.6809C979.444 40.3059 981.421 41.1184 983.75 41.1184Z" fill="#D2CDCD"/>
<mask id="mask0_1_254" style="mask-type:alpha" maskUnits="userSpaceOnUse" x="1145" y="343" width="41" height="41">
<rect x="1145" y="343" width="41" height="41" fill="#D9D9D9"/>
</mask>
<g mask="url(#mask0_1_254)">
<path d="M1158.02 359.497C1158.33 359.497 1158.61 359.381 1158.85 359.151C1159.1 358.921 1159.22 358.657 1159.22 358.359C1159.22 358.061 1159.1 357.798 1158.85 357.568C1158.61 357.337 1158.33 357.222 1158.02 357.222C1157.71 357.222 1157.43 357.337 1157.19 357.568C1156.95 357.798 1156.83 358.061 1156.83 358.359C1156.83 358.657 1156.95 358.921 1157.19 359.151C1157.43 359.381 1157.71 359.497 1158.02 359.497ZM1165.03 359.497C1165.34 359.497 1165.62 359.381 1165.86 359.151C1166.1 358.921 1166.22 358.657 1166.22 358.359C1166.22 358.061 1166.1 357.798 1165.86 357.568C1165.62 357.337 1165.34 357.222 1165.03 357.222C1164.71 357.222 1164.43 357.337 1164.19 357.568C1163.95 357.798 1163.83 358.061 1163.83 358.359C1163.83 358.657 1163.95 358.921 1164.19 359.151C1164.43 359.381 1164.71 359.497 1165.03 359.497ZM1171.94 359.497C1172.26 359.497 1172.53 359.381 1172.78 359.151C1173.02 358.921 1173.14 358.657 1173.14 358.359C1173.14 358.061 1173.02 357.798 1172.78 357.568C1172.53 357.337 1172.26 357.222 1171.94 357.222C1171.63 357.222 1171.35 357.337 1171.11 357.568C1170.87 357.798 1170.75 358.061 1170.75 358.359C1170.75 358.657 1170.87 358.921 1171.11 359.151C1171.35 359.381 1171.63 359.497 1171.94 359.497ZM1150.12 373.833V349.789C1150.12 349.139 1150.35 348.598 1150.8 348.165C1151.26 347.732 1151.83 347.515 1152.51 347.515H1177.45C1178.14 347.515 1178.71 347.732 1179.16 348.165C1179.62 348.598 1179.84 349.139 1179.84 349.789V367.01C1179.84 367.659 1179.62 368.201 1179.16 368.634C1178.71 369.067 1178.14 369.284 1177.45 369.284H1154.9L1150.12 373.833ZM1151.14 371.437L1154.43 368.309H1177.45C1177.85 368.309 1178.18 368.187 1178.44 367.943C1178.69 367.7 1178.82 367.388 1178.82 367.01V349.789C1178.82 349.41 1178.69 349.099 1178.44 348.856C1178.18 348.612 1177.85 348.49 1177.45 348.49H1152.51C1152.11 348.49 1151.79 348.612 1151.53 348.856C1151.27 349.099 1151.14 349.41 1151.14 349.789V371.437ZM1151.14 349.789V348.49V371.437V349.789Z" fill="#1C1B1F"/>
</g>
<path d="M825.373 317.6H830.701V318.536H828.541V325.064H830.701V326H825.373V325.064H827.533V318.536H825.373V317.6ZM834.46 322.544V326H833.452V317.6H836.452C836.884 317.6 837.26 317.664 837.58 317.792C837.9 317.912 838.164 318.076 838.372 318.284C838.588 318.492 838.748 318.736 838.852 319.016C838.964 319.288 839.02 319.576 839.02 319.88V320.24C839.02 320.544 838.964 320.836 838.852 321.116C838.748 321.396 838.588 321.644 838.372 321.86C838.156 322.068 837.888 322.236 837.568 322.364C837.248 322.484 836.876 322.544 836.452 322.544H834.46ZM834.46 321.608H836.332C837.452 321.608 838.012 321.128 838.012 320.168V319.952C838.012 319.528 837.872 319.188 837.592 318.932C837.32 318.668 836.9 318.536 836.332 318.536H834.46V321.608ZM841.64 317.6H846.8V318.536H842.648V321.32H846.728V322.256H842.648V326H841.64V317.6ZM854.22 320.024C854.22 319.752 854.164 319.512 854.052 319.304C853.948 319.096 853.804 318.924 853.62 318.788C853.436 318.652 853.224 318.548 852.984 318.476C852.744 318.404 852.492 318.368 852.228 318.368C851.996 318.368 851.776 318.4 851.568 318.464C851.36 318.52 851.172 318.604 851.004 318.716C850.844 318.828 850.716 318.968 850.62 319.136C850.524 319.296 850.476 319.484 850.476 319.7V319.772C850.476 320.004 850.524 320.204 850.62 320.372C850.716 320.532 850.856 320.672 851.04 320.792C851.232 320.904 851.468 321 851.748 321.08C852.028 321.152 852.356 321.216 852.732 321.272C853.612 321.408 854.26 321.668 854.676 322.052C855.092 322.428 855.3 322.936 855.3 323.576V323.72C855.3 324.08 855.236 324.412 855.108 324.716C854.988 325.012 854.804 325.268 854.556 325.484C854.316 325.7 854.016 325.868 853.656 325.988C853.296 326.108 852.88 326.168 852.408 326.168C851.872 326.168 851.396 326.092 850.98 325.94C850.572 325.78 850.228 325.564 849.948 325.292C849.676 325.012 849.468 324.688 849.324 324.32C849.18 323.944 849.108 323.536 849.108 323.096V322.736H850.116V323.024C850.116 323.76 850.316 324.312 850.716 324.68C851.124 325.048 851.688 325.232 852.408 325.232C853.032 325.232 853.5 325.096 853.812 324.824C854.132 324.544 854.292 324.176 854.292 323.72V323.648C854.292 323.208 854.128 322.872 853.8 322.64C853.48 322.408 852.956 322.24 852.228 322.136C851.804 322.08 851.42 321.996 851.076 321.884C850.74 321.764 850.452 321.612 850.212 321.428C849.972 321.236 849.788 321.008 849.66 320.744C849.532 320.48 849.468 320.168 849.468 319.808V319.664C849.468 319.336 849.536 319.036 849.672 318.764C849.808 318.492 849.996 318.256 850.236 318.056C850.484 317.856 850.776 317.704 851.112 317.6C851.456 317.488 851.832 317.432 852.24 317.432C852.712 317.432 853.132 317.5 853.5 317.636C853.876 317.772 854.192 317.956 854.448 318.188C854.704 318.412 854.896 318.68 855.024 318.992C855.16 319.296 855.228 319.616 855.228 319.952V320.456H854.22V320.024Z" fill="black"/>
<path fill-rule="evenodd" clip-rule="evenodd" d="M796.504 312.728L802.884 316.524L809.518 312.755L803.027 309L803.027 309L803.026 309H803.026L796.504 312.728ZM816.985 324.621L810.435 328.372L810.435 321.299V321.015L810.19 320.869L803.873 317.112L810.523 313.334L816.96 317.059L816.985 317.045V317.045L816.985 317.045V324.621ZM816.992 328.326L814.598 329.639V327.14L816.992 325.769V328.326ZM816.05 329.983L817 329.462V333.182V333.183L814.598 334.556L814.598 330.813L816.05 329.983ZM810.435 336.884V333.142L813.409 331.441V331.442L813.409 331.441V335.184V335.184L810.435 336.884ZM796.451 337.423L796.451 329.986L802.749 333.638L802.998 333.783L803.248 333.64L809.435 330.097L809.435 337.484L802.958 341.187V341.187L802.958 341.187L802.958 341.187L802.957 341.187H802.957L802.956 341.186V341.186L796.451 337.423ZM789.003 325.668L795.451 329.407L795.451 336.774L789.006 333.046L789.003 333.044V325.668ZM789.01 321.95L791.769 323.472L791.769 326.115L789.01 324.516V321.95ZM791.762 315.394L794.608 317.138L792.026 318.568L791.769 318.711L791.769 319.005L791.769 322.307L789.003 320.708L789.002 320.707V316.974L789 316.973L791.762 315.394ZM795.512 313.302L792.795 314.854L795.613 316.582L798.416 315.029L795.512 313.302ZM813.401 327.826V330.295L810.435 331.922V329.524L813.401 327.826ZM799.103 318.672L801.884 317.092L799.411 315.621L796.593 317.182L797.682 317.85L799.103 318.672ZM795.451 324.362L795.451 321.037V320.746L795.704 320.603L798.069 319.26L795.587 317.739L792.769 319.3L792.769 322.81L795.451 324.362ZM802.956 325.03L802.956 325.03L802.957 325.03L809.215 321.453L809.435 321.583L809.435 328.945L803.002 332.629L796.451 328.83L796.451 321.328L802.873 317.68L809.213 321.452L803.012 324.998L802.956 325.03ZM795.451 325.504L795.451 328.251L792.769 326.695L792.769 324.024L795.451 325.504Z" fill="#5CC3FF"/>
<path d="M1079 325.5L1079.28 325.087L1079.15 325H1079V325.5ZM917.239 255.802V256.302H917.446L917.592 256.156L917.239 255.802ZM1013.17 159.867L1012.82 159.51L1012.82 159.514L1013.17 159.867ZM1084.85 90.3574C1085.05 90.1642 1085.05 89.8476 1084.86 89.6503C1084.66 89.4531 1084.35 89.4498 1084.15 89.643L1084.85 90.3574ZM931.5 326H932.497V325H931.5V326ZM934.49 326H936.483V325H934.49V326ZM938.476 326H940.47V325H938.476V326ZM942.463 326H944.456V325H942.463V326ZM946.449 326H948.443V325H946.449V326ZM950.436 326H952.429V325H950.436V326ZM954.422 326H956.416V325H954.422V326ZM958.409 326H960.402V325H958.409V326ZM962.395 326H964.389V325H962.395V326ZM966.382 326H968.375V325H966.382V326ZM970.368 326H972.362V325H970.368V326ZM974.355 326H976.348V325H974.355V326ZM978.341 326H980.335V325H978.341V326ZM982.328 326H984.321V325H982.328V326ZM986.314 326H988.308V325H986.314V326ZM990.301 326H992.294V325H990.301V326ZM994.287 326H996.28V325H994.287V326ZM998.274 326H1000.27V325H998.274V326ZM1002.26 326H1004.25V325H1002.26V326ZM1006.25 326H1008.24V325H1006.25V326ZM1010.23 326H1012.23V325H1010.23V326ZM1014.22 326H1016.21V325H1014.22V326ZM1018.21 326H1020.2V325H1018.21V326ZM1022.19 326H1024.19V325H1022.19V326ZM1026.18 326H1028.17V325H1026.18V326ZM1030.17 326H1032.16V325H1030.17V326ZM1034.15 326H1036.15V325H1034.15V326ZM1038.14 326H1040.13V325H1038.14V326ZM1042.13 326H1044.12V325H1042.13V326ZM1046.11 326H1048.1V325H1046.11V326ZM1050.1 326H1052.09V325H1050.1V326ZM1054.08 326H1056.08V325H1054.08V326ZM1058.07 326H1060.06V325H1058.07V326ZM1062.06 326H1064.05V325H1062.06V326ZM1066.04 326H1068.04V325H1066.04V326ZM1070.03 326H1072.02V325H1070.03V326ZM1074.02 326H1076.01V325H1074.02V326ZM1078 326H1079V325H1078V326ZM1078.72 325.913L1079.54 326.476L1080.11 325.65L1079.28 325.087L1078.72 325.913ZM1081.19 327.601L1082.84 328.726L1083.41 327.9L1081.76 326.775L1081.19 327.601ZM1084.49 329.851L1086.14 330.976L1086.71 330.15L1085.06 329.025L1084.49 329.851ZM1087.79 332.101L1089.44 333.226L1090.01 332.4L1088.36 331.275L1087.79 332.101ZM1091.09 334.351L1092.74 335.476L1093.31 334.65L1091.66 333.525L1091.09 334.351ZM1094.39 336.601L1096.04 337.726L1096.61 336.9L1094.96 335.775L1094.39 336.601ZM1097.69 338.851L1099.34 339.976L1099.91 339.15L1098.26 338.025L1097.69 338.851ZM1100.99 341.101L1102.64 342.226L1103.21 341.4L1101.56 340.275L1100.99 341.101ZM1104.29 343.351L1105.94 344.476L1106.51 343.65L1104.86 342.525L1104.29 343.351ZM1107.59 345.601L1109.24 346.726L1109.81 345.9L1108.16 344.775L1107.59 345.601ZM1110.89 347.851L1112.54 348.976L1113.11 348.15L1111.46 347.025L1110.89 347.851ZM1114.19 350.101L1115.84 351.226L1116.41 350.4L1114.76 349.275L1114.19 350.101ZM1117.49 352.351L1119.14 353.476L1119.71 352.65L1118.06 351.525L1117.49 352.351ZM1120.79 354.601L1122.44 355.726L1123.01 354.9L1121.36 353.775L1120.79 354.601ZM1124.09 356.851L1125.74 357.976L1126.31 357.15L1124.66 356.025L1124.09 356.851ZM1127.39 359.101L1129.04 360.226L1129.61 359.4L1127.96 358.275L1127.39 359.101ZM1130.69 361.351L1132.34 362.476L1132.91 361.65L1131.26 360.525L1130.69 361.351ZM1133.99 363.601L1135.64 364.726L1136.21 363.9L1134.56 362.775L1133.99 363.601ZM1137.29 365.851L1138.94 366.976L1139.51 366.15L1137.86 365.025L1137.29 365.851ZM1140.59 368.101L1142.24 369.226L1142.81 368.4L1141.16 367.275L1140.59 368.101ZM1143.89 370.351L1144.72 370.913L1145.28 370.087L1144.46 369.525L1143.89 370.351ZM818.5 256.302H819.511V255.302H818.5V256.302ZM821.532 256.302H823.553V255.302H821.532V256.302ZM825.574 256.302H827.595V255.302H825.574V256.302ZM829.616 256.302H831.638V255.302H829.616V256.302ZM833.659 256.302H835.68V255.302H833.659V256.302ZM837.701 256.302H839.722V255.302H837.701V256.302ZM841.743 256.302H843.764V255.302H841.743V256.302ZM845.786 256.302H847.807V255.302H845.786V256.302ZM849.828 256.302H851.849V255.302H849.828V256.302ZM853.87 256.302H854.881V255.302H853.87V256.302ZM854.881 256.302H855.855V255.302H854.881V256.302ZM857.804 256.302H859.752V255.302H857.804V256.302ZM861.701 256.302H863.65V255.302H861.701V256.302ZM865.599 256.302H867.547V255.302H865.599V256.302ZM869.496 256.302H871.445V255.302H869.496V256.302ZM873.393 256.302H875.342V255.302H873.393V256.302ZM877.291 256.302H879.239V255.302H877.291V256.302ZM881.188 256.302H883.137V255.302H881.188V256.302ZM885.085 256.302H887.034V255.302H885.085V256.302ZM888.983 256.302H890.931V255.302H888.983V256.302ZM892.88 256.302H894.829V255.302H892.88V256.302ZM896.777 256.302H898.726V255.302H896.777V256.302ZM900.675 256.302H902.623V255.302H900.675V256.302ZM904.572 256.302H906.521V255.302H904.572V256.302ZM908.469 256.302H910.418V255.302H908.469V256.302ZM912.367 256.302H914.316V255.302H912.367V256.302ZM916.264 256.302H917.239V255.302H916.264V256.302ZM917.592 256.156L918.298 255.451L917.59 254.743L916.885 255.449L917.592 256.156ZM919.708 254.04L921.119 252.629L920.412 251.922L919.001 253.333L919.708 254.04ZM922.53 251.218L923.941 249.807L923.234 249.1L921.823 250.511L922.53 251.218ZM925.352 248.396L926.762 246.986L926.055 246.279L924.644 247.689L925.352 248.396ZM928.173 245.575L929.584 244.164L928.877 243.457L927.466 244.868L928.173 245.575ZM930.995 242.753L932.406 241.342L931.698 240.635L930.288 242.046L930.995 242.753ZM933.816 239.932L935.227 238.521L934.52 237.814L933.109 239.225L933.816 239.932ZM936.638 237.11L938.049 235.699L937.342 234.992L935.931 236.403L936.638 237.11ZM939.46 234.288L940.87 232.878L940.163 232.17L938.752 233.581L939.46 234.288ZM942.281 231.467L943.692 230.056L942.985 229.349L941.574 230.76L942.281 231.467ZM945.103 228.645L946.514 227.234L945.807 226.527L944.396 227.938L945.103 228.645ZM947.924 225.824L949.335 224.413L948.628 223.706L947.217 225.116L947.924 225.824ZM950.746 223.002L952.157 221.591L951.45 220.884L950.039 222.295L950.746 223.002ZM953.568 220.18L954.978 218.77L954.271 218.062L952.861 219.473L953.568 220.18ZM956.389 217.359L957.8 215.948L957.093 215.241L955.682 216.652L956.389 217.359ZM959.211 214.537L960.622 213.126L959.915 212.419L958.504 213.83L959.211 214.537ZM962.032 211.715L963.443 210.305L962.736 209.598L961.325 211.008L962.032 211.715ZM964.854 208.894L966.265 207.483L965.558 206.776L964.147 208.187L964.854 208.894ZM967.676 206.072L969.087 204.661L968.379 203.954L966.969 205.365L967.676 206.072ZM970.497 203.251L971.908 201.84L971.201 201.133L969.79 202.544L970.497 203.251ZM973.319 200.429L974.73 199.018L974.023 198.311L972.612 199.722L973.319 200.429ZM976.141 197.607L977.551 196.197L976.844 195.489L975.433 196.9L976.141 197.607ZM978.962 194.786L980.373 193.375L979.666 192.668L978.255 194.079L978.962 194.786ZM981.784 191.964L983.195 190.553L982.488 189.846L981.077 191.257L981.784 191.964ZM984.605 189.143L986.016 187.732L985.309 187.025L983.898 188.435L984.605 189.143ZM987.427 186.321L988.838 184.91L988.131 184.203L986.72 185.614L987.427 186.321ZM990.249 183.499L991.659 182.088L990.952 181.381L989.542 182.792L990.249 183.499ZM993.07 180.678L994.481 179.267L993.774 178.56L992.363 179.971L993.07 180.678ZM995.892 177.856L997.303 176.445L996.596 175.738L995.185 177.149L995.892 177.856ZM998.714 175.034L1000.12 173.624L999.417 172.916L998.006 174.327L998.714 175.034ZM1001.54 172.213L1002.95 170.802L1002.24 170.095L1000.83 171.506L1001.54 172.213ZM1004.36 169.391L1005.77 167.98L1005.06 167.273L1003.65 168.684L1004.36 169.391ZM1007.18 166.57L1008.59 165.159L1007.88 164.452L1006.47 165.862L1007.18 166.57ZM1010 163.748L1011.41 162.337L1010.7 161.63L1009.29 163.041L1010 163.748ZM1012.82 160.926L1013.53 160.221L1012.82 159.514L1012.11 160.219L1012.82 160.926ZM1013.52 160.225L1014.24 159.526L1013.54 158.812L1012.82 159.51L1013.52 160.225ZM1015.66 158.129L1017.09 156.731L1016.39 156.017L1014.96 157.414L1015.66 158.129ZM1018.52 155.334L1019.94 153.937L1019.24 153.222L1017.82 154.62L1018.52 155.334ZM1021.37 152.539L1022.8 151.142L1022.1 150.427L1020.67 151.825L1021.37 152.539ZM1024.22 149.745L1025.65 148.347L1024.95 147.633L1023.52 149.03L1024.22 149.745ZM1027.08 146.95L1028.5 145.552L1027.8 144.838L1026.38 146.235L1027.08 146.95ZM1029.93 144.155L1031.35 142.758L1030.66 142.043L1029.23 143.441L1029.93 144.155ZM1032.78 141.36L1034.21 139.963L1033.51 139.249L1032.08 140.646L1032.78 141.36ZM1035.63 138.566L1037.06 137.168L1036.36 136.454L1034.93 137.851L1035.63 138.566ZM1038.49 135.771L1039.91 134.374L1039.21 133.659L1037.79 135.057L1038.49 135.771ZM1041.34 132.976L1042.77 131.579L1042.07 130.865L1040.64 132.262L1041.34 132.976ZM1044.19 130.182L1045.62 128.784L1044.92 128.07L1043.49 129.467L1044.19 130.182ZM1047.05 127.387L1048.47 125.99L1047.77 125.275L1046.35 126.673L1047.05 127.387ZM1049.9 124.592L1051.33 123.195L1050.63 122.481L1049.2 123.878L1049.9 124.592ZM1052.75 121.798L1054.18 120.4L1053.48 119.686L1052.05 121.083L1052.75 121.798ZM1055.61 119.003L1057.03 117.606L1056.33 116.891L1054.91 118.289L1055.61 119.003ZM1058.46 116.208L1059.89 114.811L1059.19 114.097L1057.76 115.494L1058.46 116.208ZM1061.31 113.414L1062.74 112.016L1062.04 111.302L1060.61 112.699L1061.31 113.414ZM1064.17 110.619L1065.59 109.222L1064.89 108.507L1063.47 109.905L1064.17 110.619ZM1067.02 107.824L1068.44 106.427L1067.74 105.713L1066.32 107.11L1067.02 107.824ZM1069.87 105.03L1071.3 103.632L1070.6 102.918L1069.17 104.315L1069.87 105.03ZM1072.72 102.235L1074.15 100.838L1073.45 100.123L1072.02 101.52L1072.72 102.235ZM1075.58 99.4402L1077 98.0428L1076.3 97.3285L1074.88 98.7258L1075.58 99.4402ZM1078.43 96.6455L1079.86 95.2481L1079.16 94.5338L1077.73 95.9311L1078.43 96.6455ZM1081.28 93.8508L1082.71 92.4535L1082.01 91.7391L1080.58 93.1364L1081.28 93.8508ZM1084.14 91.0561L1084.85 90.3574L1084.15 89.643L1083.44 90.3417L1084.14 91.0561Z" fill="#C8C8C8"/>
<path d="M1065 258H991" stroke="#5CC3FF" stroke-dasharray="2 2"/>
<path d="M809.5 256H759.5" stroke="black" stroke-dasharray="2 2"/>
<path d="M917.525 127.535C917.329 127.731 917.329 128.047 917.525 128.242C917.72 128.438 918.036 128.438 918.232 128.242L917.525 127.535ZM918.232 128.242L918.927 127.547L918.22 126.84L917.525 127.535L918.232 128.242ZM920.317 126.157L921.708 124.766L921 124.059L919.61 125.45L920.317 126.157ZM923.098 123.376L924.488 121.986L923.781 121.279L922.391 122.669L923.098 123.376ZM925.879 120.595L927.269 119.205L926.562 118.498L925.172 119.888L925.879 120.595ZM928.659 117.815L930.05 116.424L929.343 115.717L927.952 117.108L928.659 117.815ZM931.44 115.034L932.83 113.644L932.123 112.936L930.733 114.327L931.44 115.034ZM934.221 112.253L935.611 110.863L934.904 110.156L933.514 111.546L934.221 112.253ZM937.002 109.472L938.392 108.082L937.685 107.375L936.294 108.765L937.002 109.472ZM939.782 106.692L941.173 105.301L940.466 104.594L939.075 105.985L939.782 106.692ZM942.563 103.911L943.953 102.521L943.246 101.814L941.856 103.204L942.563 103.911ZM945.344 101.13L946.734 99.74L946.027 99.0329L944.637 100.423L945.344 101.13ZM948.124 98.3496L949.515 96.9592L948.808 96.2521L947.417 97.6425L948.124 98.3496ZM950.905 95.5689L952.296 94.1785L951.588 93.4714L950.198 94.8618L950.905 95.5689ZM953.686 92.7882L955.076 91.3978L954.369 90.6907L952.979 92.0811L953.686 92.7882ZM956.467 90.0074L957.857 88.6171L957.15 87.91L955.759 89.3003L956.467 90.0074ZM959.247 87.2267L960.638 85.8364L959.931 85.1293L958.54 86.5196L959.247 87.2267ZM962.028 84.446L963.418 83.0556L962.711 82.3485L961.321 83.7389L962.028 84.446ZM964.809 81.6653L966.199 80.2749L965.492 79.5678L964.102 80.9582L964.809 81.6653ZM967.589 78.8846L968.98 77.4942L968.273 76.7871L966.882 78.1774L967.589 78.8846ZM970.37 76.1038L971.761 74.7135L971.053 74.0064L969.663 75.3967L970.37 76.1038ZM973.151 73.3231L974.541 71.9327L973.834 71.2256L972.444 72.616L973.151 73.3231ZM975.932 70.5424L977.322 69.152L976.615 68.4449L975.225 69.8353L975.932 70.5424ZM978.712 67.7617L980.103 66.3713L979.396 65.6642L978.005 67.0545L978.712 67.7617ZM981.493 64.9809L982.188 64.2857L981.481 63.5786L980.786 64.2738L981.493 64.9809Z" fill="black"/>
<path d="M817 176L916.5 128.528H1109.11L1201.5 38" stroke="#A6A6A6" stroke-dasharray="5 5"/>
<circle cx="926.117" cy="326.117" r="3.61653" fill="white" stroke="black" stroke-width="3"/>
<circle cx="752.715" cy="256.715" r="4.21545" fill="white" stroke="#5CC3FF" stroke-width="5"/>
<circle cx="918.436" cy="128.436" r="3.93631" fill="white" stroke="#848484" stroke-width="3"/>
<circle cx="1081.35" cy="93.355" r="4.85501" fill="white" stroke="#5CC3FF" stroke-width="5"/>
<circle cx="816.355" cy="256.355" r="4.85501" fill="white" stroke="#E0E0E0" stroke-width="5"/>
<path d="M1212.15 31.0759C1212.15 33.3269 1210.33 35.1518 1208.08 35.1518C1205.82 35.1518 1204 33.3269 1204 31.0759C1204 28.8248 1205.82 27 1208.08 27C1210.33 27 1212.15 28.8248 1212.15 31.0759Z" fill="white" stroke="#B1B1B1" stroke-width="4"/>
<circle cx="1205.08" cy="476.076" r="4.07588" fill="white" stroke="#C8C8C8" stroke-width="4"/>
<circle cx="1109.44" cy="258.436" r="3.93631" fill="white" stroke="black" stroke-width="3"/>
<path d="M816.5 338L920.895 418.214H1017.31H1113.72L1202 474" stroke="#C8C8C8" stroke-dasharray="2 2"/>
<circle cx="921.534" cy="417.894" r="3.93631" fill="white" stroke="black" stroke-width="3"/>
<circle cx="1114.68" cy="417.894" r="3.93631" fill="white" stroke="#5CC3FF" stroke-width="3"/>
<circle cx="814.995" cy="177.995" r="7.49458" fill="white" stroke="black"/>
<circle cx="1109.44" cy="128.436" r="3.93631" fill="white" stroke="#9A9A9A" stroke-width="3"/>
<g filter="url(#filter0_bd_1_254)">
<path d="M902.134 186V293.568H981.813V225.939L941.924 186H902.134Z" fill="white" fill-opacity="0.6" shape-rendering="crispEdges"/>
<path d="M902.134 186V293.568H981.813V225.939L941.924 186H902.134Z" stroke="#A49A9A" stroke-dasharray="5 5" shape-rendering="crispEdges"/>
</g>
<path d="M941.973 186L981.813 225.84" stroke="#A49A9A" stroke-dasharray="5 5"/>
<circle cx="982.076" cy="258.076" r="3.57588" fill="white" stroke="black" stroke-width="5"/>
<g filter="url(#filter1_bd_1_254)">
<path d="M886 199.787V307.355H965.68V239.727L925.79 199.787H886Z" fill="white" fill-opacity="0.6" shape-rendering="crispEdges"/>
<path d="M886 199.787V307.355H965.68V239.727L925.79 199.787H886Z" stroke="#5CC3FF" shape-rendering="crispEdges"/>
</g>
<path d="M925.84 199.787L965.68 239.627" stroke="#5CC3FF"/>
<circle cx="981.682" cy="63.9122" r="4" fill="white" stroke="#C0C0C0" stroke-width="3"/>
<circle cx="964.33" cy="208.33" r="2.32975" fill="black"/>
<path d="M924.5 273.142L910.791 255.759L914.729 247.396H934.271L938.209 255.759L924.5 273.142ZM919.688 255.22H929.313L926.25 248.706H922.75L919.688 255.22ZM923.881 270.367V256.53H913.016L923.881 270.367ZM925.12 270.367L935.984 256.53H925.12V270.367ZM930.698 255.22H936.531L933.432 248.706H927.635L930.698 255.22ZM912.469 255.22H918.302L921.365 248.706H915.568L912.469 255.22Z" fill="#5CC3FF"/>
<path d="M465.822 181C465.049 181 464.385 180.767 463.832 180.3C463.277 179.834 463 179.276 463 178.626V164.083C463 163.433 463.277 162.875 463.832 162.408C464.385 161.942 465.049 161.709 465.822 161.709H469.146V158.19C469.146 156.466 469.86 155.003 471.287 153.802C472.714 152.601 474.451 152 476.5 152C478.549 152 480.286 152.601 481.713 153.802C483.14 155.003 483.854 156.466 483.854 158.19V161.709H487.178C487.951 161.709 488.615 161.942 489.168 162.408C489.723 162.875 490 163.433 490 164.083V178.626C490 179.276 489.723 179.834 489.168 180.3C488.615 180.767 487.951 181 487.178 181H465.822ZM465.822 179.982H487.178C487.649 179.982 488.036 179.855 488.338 179.601C488.64 179.346 488.791 179.022 488.791 178.626V164.083C488.791 163.688 488.64 163.363 488.338 163.109C488.036 162.854 487.649 162.727 487.178 162.727H465.822C465.351 162.727 464.964 162.854 464.662 163.109C464.36 163.363 464.209 163.688 464.209 164.083V178.626C464.209 179.022 464.36 179.346 464.662 179.601C464.964 179.855 465.351 179.982 465.822 179.982ZM470.355 161.709H482.645V158.19C482.645 156.748 482.049 155.526 480.857 154.522C479.665 153.519 478.213 153.018 476.5 153.018C474.787 153.018 473.335 153.519 472.143 154.522C470.951 155.526 470.355 156.748 470.355 158.19V161.709Z" fill="#DBDBDB"/>
<circle cx="1108.5" cy="257.5" r="38.25" stroke="#5CC3FF" stroke-width="0.5" stroke-dasharray="2 2"/>
<g clip-path="url(#clip1_1_254)">
<path d="M1108.72 88.2517L1084.93 66.8632L1122.19 49.3432L1108.72 88.2517ZM1108.02 85.6678L1119.67 52.145L1087.52 67.2401L1095.78 74.6642L1105.79 67.5792L1099.76 78.2437L1108.02 85.6678Z" fill="#5CC3FF"/>
</g>
<path d="M1092.63 269.956V279H1091.79V269.956H1088.45V269.228H1095.98V269.956H1092.63ZM1098.61 279H1097.77V269.228H1101.27C1102.13 269.228 1102.79 269.475 1103.24 269.97C1103.69 270.455 1103.91 271.123 1103.91 271.972C1103.91 272.765 1103.71 273.4 1103.3 273.876C1102.89 274.352 1102.3 274.613 1101.5 274.66H1101.29L1103.94 279H1103L1100.43 274.702H1098.61V279ZM1101.25 273.988C1101.84 273.988 1102.28 273.829 1102.58 273.512C1102.88 273.195 1103.03 272.793 1103.03 272.308V271.636C1103.03 271.151 1102.88 270.749 1102.58 270.432C1102.28 270.115 1101.84 269.956 1101.25 269.956H1098.61V273.988H1101.25ZM1111.77 279L1110.85 276.018H1107.15L1106.22 279H1105.35L1108.46 269.228H1109.56L1112.66 279H1111.77ZM1109.04 270.124H1108.95L1107.35 275.29H1110.64L1109.04 270.124ZM1114.6 269.228H1117.26C1118.44 269.228 1119.32 269.643 1119.88 270.474C1120.44 271.295 1120.73 272.509 1120.73 274.114C1120.73 275.729 1120.44 276.947 1119.88 277.768C1119.32 278.589 1118.44 279 1117.26 279H1114.6V269.228ZM1117.23 278.272C1118.12 278.272 1118.77 277.964 1119.19 277.348C1119.62 276.723 1119.83 275.855 1119.83 274.744V273.484C1119.83 272.373 1119.62 271.51 1119.19 270.894C1118.77 270.269 1118.12 269.956 1117.23 269.956H1115.44V278.272H1117.23ZM1122.95 279V269.228H1128.84V269.956H1123.79V273.68H1128.66V274.408H1123.79V278.272H1128.84V279H1122.95Z" fill="#5CC3FF"/>
<path d="M1097.76 242.324V243.596H1091.91V242.324H1097.76ZM1095.52 239.934V246.145H1094.16V239.934H1095.52ZM1104.56 245.875V247H1098.84V246.033L1101.62 243.004C1101.92 242.66 1102.16 242.363 1102.34 242.113C1102.51 241.863 1102.63 241.639 1102.71 241.439C1102.78 241.236 1102.82 241.039 1102.82 240.848C1102.82 240.578 1102.77 240.342 1102.66 240.139C1102.57 239.932 1102.42 239.77 1102.23 239.652C1102.04 239.531 1101.81 239.471 1101.53 239.471C1101.22 239.471 1100.95 239.539 1100.74 239.676C1100.52 239.812 1100.36 240.002 1100.25 240.244C1100.14 240.482 1100.09 240.756 1100.09 241.064H1098.67C1098.67 240.568 1098.79 240.115 1099.01 239.705C1099.24 239.291 1099.57 238.963 1100 238.721C1100.43 238.475 1100.95 238.352 1101.55 238.352C1102.12 238.352 1102.61 238.447 1103 238.639C1103.4 238.83 1103.71 239.102 1103.91 239.453C1104.12 239.805 1104.23 240.221 1104.23 240.701C1104.23 240.967 1104.19 241.23 1104.1 241.492C1104.01 241.754 1103.89 242.016 1103.73 242.277C1103.57 242.535 1103.39 242.795 1103.17 243.057C1102.96 243.314 1102.72 243.576 1102.46 243.842L1100.62 245.875H1104.56ZM1109.51 238.439V247H1108.1V240.115L1106.01 240.824V239.658L1109.34 238.439H1109.51ZM1114.14 242.096H1114.98C1115.31 242.096 1115.58 242.039 1115.79 241.926C1116.01 241.812 1116.18 241.656 1116.28 241.457C1116.39 241.258 1116.44 241.029 1116.44 240.771C1116.44 240.502 1116.39 240.271 1116.29 240.08C1116.2 239.885 1116.05 239.734 1115.86 239.629C1115.67 239.523 1115.42 239.471 1115.13 239.471C1114.88 239.471 1114.65 239.521 1114.45 239.623C1114.25 239.721 1114.09 239.861 1113.97 240.045C1113.86 240.225 1113.8 240.439 1113.8 240.689H1112.38C1112.38 240.236 1112.5 239.834 1112.74 239.482C1112.97 239.131 1113.3 238.855 1113.71 238.656C1114.12 238.453 1114.59 238.352 1115.1 238.352C1115.65 238.352 1116.13 238.443 1116.54 238.627C1116.96 238.807 1117.28 239.076 1117.51 239.436C1117.74 239.795 1117.86 240.24 1117.86 240.771C1117.86 241.014 1117.8 241.26 1117.69 241.51C1117.57 241.76 1117.41 241.988 1117.18 242.195C1116.96 242.398 1116.68 242.564 1116.35 242.693C1116.02 242.818 1115.63 242.881 1115.2 242.881H1114.14V242.096ZM1114.14 243.197V242.424H1115.2C1115.7 242.424 1116.12 242.482 1116.47 242.6C1116.83 242.717 1117.12 242.879 1117.34 243.086C1117.56 243.289 1117.73 243.521 1117.83 243.783C1117.93 244.045 1117.99 244.322 1117.99 244.615C1117.99 245.014 1117.91 245.369 1117.77 245.682C1117.63 245.99 1117.43 246.252 1117.17 246.467C1116.9 246.682 1116.6 246.844 1116.25 246.953C1115.9 247.062 1115.52 247.117 1115.11 247.117C1114.74 247.117 1114.39 247.066 1114.05 246.965C1113.72 246.863 1113.42 246.713 1113.15 246.514C1112.89 246.311 1112.68 246.059 1112.52 245.758C1112.37 245.453 1112.29 245.102 1112.29 244.703H1113.7C1113.7 244.957 1113.76 245.182 1113.88 245.377C1114 245.568 1114.17 245.719 1114.38 245.828C1114.6 245.938 1114.85 245.992 1115.13 245.992C1115.43 245.992 1115.69 245.939 1115.9 245.834C1116.12 245.729 1116.28 245.572 1116.39 245.365C1116.51 245.158 1116.57 244.908 1116.57 244.615C1116.57 244.283 1116.5 244.014 1116.38 243.807C1116.25 243.6 1116.06 243.447 1115.82 243.35C1115.59 243.248 1115.3 243.197 1114.98 243.197H1114.14ZM1122.69 237.104V238.855H1121.79V237.104H1122.69ZM1122.58 246.672V248.242H1121.68V246.672H1122.58ZM1123.46 244.779C1123.46 244.553 1123.42 244.355 1123.32 244.188C1123.23 244.016 1123.09 243.861 1122.88 243.725C1122.67 243.584 1122.39 243.453 1122.05 243.332C1121.55 243.156 1121.11 242.959 1120.73 242.74C1120.36 242.518 1120.07 242.244 1119.87 241.92C1119.66 241.592 1119.56 241.184 1119.56 240.695C1119.56 240.215 1119.67 239.799 1119.89 239.447C1120.11 239.096 1120.42 238.824 1120.82 238.633C1121.21 238.441 1121.67 238.346 1122.2 238.346C1122.61 238.346 1122.97 238.406 1123.29 238.527C1123.62 238.648 1123.9 238.826 1124.13 239.061C1124.36 239.295 1124.54 239.584 1124.66 239.928C1124.79 240.268 1124.85 240.658 1124.85 241.1H1123.44C1123.44 240.85 1123.41 240.627 1123.35 240.432C1123.3 240.232 1123.22 240.064 1123.11 239.928C1123 239.787 1122.87 239.68 1122.71 239.605C1122.56 239.531 1122.38 239.494 1122.19 239.494C1121.91 239.494 1121.68 239.547 1121.5 239.652C1121.32 239.754 1121.19 239.895 1121.1 240.074C1121.02 240.254 1120.98 240.459 1120.98 240.689C1120.98 240.912 1121.02 241.107 1121.11 241.275C1121.2 241.443 1121.34 241.596 1121.55 241.732C1121.76 241.865 1122.05 242 1122.42 242.137C1122.92 242.316 1123.36 242.518 1123.72 242.74C1124.09 242.959 1124.38 243.23 1124.58 243.555C1124.78 243.875 1124.88 244.279 1124.88 244.768C1124.88 245.271 1124.77 245.699 1124.53 246.051C1124.3 246.402 1123.98 246.67 1123.56 246.854C1123.14 247.033 1122.66 247.123 1122.11 247.123C1121.76 247.123 1121.42 247.078 1121.07 246.988C1120.73 246.895 1120.43 246.742 1120.15 246.531C1119.87 246.32 1119.65 246.041 1119.49 245.693C1119.32 245.342 1119.24 244.912 1119.24 244.404H1120.66C1120.66 244.709 1120.7 244.963 1120.78 245.166C1120.86 245.369 1120.97 245.529 1121.12 245.646C1121.26 245.764 1121.41 245.848 1121.58 245.898C1121.76 245.949 1121.94 245.975 1122.11 245.975C1122.4 245.975 1122.65 245.926 1122.85 245.828C1123.05 245.727 1123.21 245.586 1123.31 245.406C1123.41 245.223 1123.46 245.014 1123.46 244.779Z" fill="#5CC3FF"/>
<path d="M326.5 325.5H179L113 370.5M439.5 255.802H403.119H340.761L244.827 159.867" stroke="#5CC3FF" stroke-dasharray="2 2"/>
<path d="M448.5 256H498.5" stroke="black" stroke-dasharray="2 2"/>
<path d="M340.475 127.535C340.671 127.731 340.671 128.047 340.475 128.242C340.28 128.438 339.964 128.438 339.768 128.242L340.475 127.535ZM339.768 128.242L339.073 127.547L339.78 126.84L340.475 127.535L339.768 128.242ZM337.683 126.157L336.292 124.766L337 124.059L338.39 125.45L337.683 126.157ZM334.902 123.376L333.512 121.986L334.219 121.279L335.609 122.669L334.902 123.376ZM332.121 120.595L330.731 119.205L331.438 118.498L332.828 119.888L332.121 120.595ZM329.341 117.815L327.95 116.424L328.657 115.717L330.048 117.108L329.341 117.815ZM326.56 115.034L325.17 113.644L325.877 112.936L327.267 114.327L326.56 115.034ZM323.779 112.253L322.389 110.863L323.096 110.156L324.486 111.546L323.779 112.253ZM320.998 109.472L319.608 108.082L320.315 107.375L321.706 108.765L320.998 109.472ZM318.218 106.692L316.827 105.301L317.534 104.594L318.925 105.985L318.218 106.692ZM315.437 103.911L314.047 102.521L314.754 101.814L316.144 103.204L315.437 103.911ZM312.656 101.13L311.266 99.74L311.973 99.0329L313.363 100.423L312.656 101.13ZM309.876 98.3496L308.485 96.9592L309.192 96.2521L310.583 97.6425L309.876 98.3496ZM307.095 95.5689L305.704 94.1785L306.412 93.4714L307.802 94.8618L307.095 95.5689ZM304.314 92.7882L302.924 91.3978L303.631 90.6907L305.021 92.0811L304.314 92.7882ZM301.533 90.0074L300.143 88.6171L300.85 87.91L302.241 89.3003L301.533 90.0074ZM298.753 87.2267L297.362 85.8364L298.069 85.1293L299.46 86.5196L298.753 87.2267ZM295.972 84.446L294.582 83.0556L295.289 82.3485L296.679 83.7389L295.972 84.446ZM293.191 81.6653L291.801 80.2749L292.508 79.5678L293.898 80.9582L293.191 81.6653ZM290.411 78.8846L289.02 77.4942L289.727 76.7871L291.118 78.1774L290.411 78.8846ZM287.63 76.1038L286.239 74.7135L286.947 74.0064L288.337 75.3967L287.63 76.1038ZM284.849 73.3231L283.459 71.9327L284.166 71.2256L285.556 72.616L284.849 73.3231ZM282.068 70.5424L280.678 69.152L281.385 68.4449L282.775 69.8353L282.068 70.5424ZM279.288 67.7617L277.897 66.3713L278.604 65.6642L279.995 67.0545L279.288 67.7617ZM276.507 64.9809L275.812 64.2857L276.519 63.5786L277.214 64.2738L276.507 64.9809Z" fill="black"/>
<path d="M441 176L341.5 128.528H148.892L43.3632 23" stroke="#9F9F9F" stroke-dasharray="5 5"/>
<circle cx="5.11653" cy="5.11653" r="3.61653" transform="matrix(-1 0 0 1 337 321)" fill="white" stroke="#5CC3FF" stroke-width="3"/>
<circle cx="6.71545" cy="6.71545" r="4.21545" transform="matrix(-1 0 0 1 512 250)" fill="white" stroke="black" stroke-width="5"/>
<circle cx="5.43631" cy="5.43631" r="3.93631" transform="matrix(-1 0 0 1 345 123)" fill="white" stroke="#BBBBBB" stroke-width="3"/>
<circle cx="7.35501" cy="7.35501" r="7.10501" transform="matrix(-1 0 0 1 248.71 150)" fill="white" stroke="#5CC3FF" stroke-width="0.5"/>
<circle cx="7.35501" cy="7.35501" r="4.85501" transform="matrix(-1 0 0 1 449 249)" fill="white" stroke="#E0E0E0" stroke-width="5"/>
<circle cx="6.07588" cy="6.07588" r="3.57588" transform="matrix(-1 0 0 1 49.0001 17)" fill="white" stroke="black" stroke-width="5"/>
<circle cx="6.07588" cy="6.07588" r="3.57588" transform="matrix(-1 0 0 1 62 468)" fill="white" stroke="black" stroke-width="5"/>
<circle cx="6.07588" cy="6.07588" r="3.57588" transform="matrix(-1 0 0 1 259 253)" fill="white" stroke="black" stroke-width="5"/>
<path d="M441.5 338L337.105 418.214H240.691H144.276L56 474" stroke="#C8C8C8" stroke-dasharray="2 2"/>
<circle cx="5.43631" cy="5.43631" r="3.93631" transform="matrix(-1 0 0 1 341.902 412.458)" fill="white" stroke="black" stroke-width="3"/>
<circle cx="5.43631" cy="5.43631" r="3.93631" transform="matrix(-1 0 0 1 148.753 412.458)" fill="white" stroke="#5CC3FF" stroke-width="3"/>
<circle cx="7.99458" cy="7.99458" r="6.49458" transform="matrix(-1 0 0 1 453 330)" fill="white" stroke="#5CC3FF" stroke-width="3"/>
<circle cx="7.99458" cy="7.99458" r="6.99458" transform="matrix(-1 0 0 1 453 171)" fill="white" stroke="black" stroke-width="2"/>
<circle cx="5.43631" cy="5.43631" r="3.93631" transform="matrix(-1 0 0 1 154.873 123)" fill="white" stroke="#5CC3FF" stroke-width="3"/>
<g filter="url(#filter2_bd_1_254)">
<path d="M355.866 186V293.568H276.187V225.939L316.076 186H355.866Z" fill="white" fill-opacity="0.6" shape-rendering="crispEdges"/>
<path d="M355.866 186V293.568H276.187V225.939L316.076 186H355.866Z" stroke="#B0AEAE" stroke-dasharray="3 3" shape-rendering="crispEdges"/>
</g>
<path d="M316.027 186L276.187 225.84" stroke="#B0AEAE" stroke-dasharray="3 3"/>
<g filter="url(#filter3_bd_1_254)">
<path d="M372 199.787V307.355H292.32V239.727L332.21 199.787H372Z" fill="white" fill-opacity="0.6" shape-rendering="crispEdges"/>
<path d="M372 199.787V307.355H292.32V239.727L332.21 199.787H372Z" stroke="black" shape-rendering="crispEdges"/>
</g>
<path d="M332.16 199.787L292.32 239.627" stroke="black"/>
<circle cx="5.5" cy="5.5" r="4" transform="matrix(-1 0 0 1 281.818 58.4122)" fill="white" stroke="#202020" stroke-width="3"/>
<circle cx="2.32975" cy="2.32975" r="2.32975" transform="matrix(-1 0 0 1 296 206)" fill="black"/>
<circle cx="38.5" cy="38.5" r="38.25" transform="matrix(-1 0 0 1 188 219)" stroke="black" stroke-width="0.5" stroke-dasharray="3 3"/>
<path d="M149.5 114.938L154.171 117.224L159.09 118.911L160.776 123.829L163.062 128.5L160.776 133.171L159.09 138.09L154.171 139.777L149.5 142.062L144.829 139.777L139.91 138.09L138.223 133.171L135.938 128.5L138.223 123.829L139.91 118.911L144.829 117.224L149.5 114.938Z" stroke="#5CC3FF" stroke-width="0.8"/>
<path d="M149.5 118.806L152.838 120.439L156.354 121.645L157.56 125.161L159.194 128.5L157.56 131.839L156.354 135.355L152.838 136.561L149.5 138.194L146.161 136.561L142.645 135.355L141.439 131.839L139.805 128.5L141.439 125.161L142.645 121.645L146.161 120.439L149.5 118.806Z" stroke="#5CC3FF" stroke-width="0.8"/>
<path d="M149.5 141.76V115.322" stroke="#5CC3FF" stroke-width="0.8"/>
<path d="M162.719 128.541H136.28" stroke="#5CC3FF" stroke-width="0.8"/>
<path d="M158.847 137.889L140.152 119.194" stroke="#5CC3FF" stroke-width="0.8"/>
<path d="M140.151 137.889L158.846 119.194" stroke="#5CC3FF" stroke-width="0.8"/>
<g clip-path="url(#clip2_1_254)">
<path d="M276.5 39.1072C279.03 39.1072 281.088 37.2016 281.088 34.8592C281.088 32.5168 279.03 30.6111 276.5 30.6111C273.97 30.6111 271.912 32.5168 271.912 34.8592C271.912 37.2016 273.97 39.1072 276.5 39.1072ZM276.5 32.076C278.157 32.076 279.506 33.3245 279.506 34.8592C279.506 36.3939 278.157 37.6424 276.5 37.6424C274.843 37.6424 273.494 36.3939 273.494 34.8592C273.494 33.3245 274.843 32.076 276.5 32.076Z" fill="#5CC3FF"/>
<path d="M285.781 39.1072C287.381 39.1072 288.682 37.9025 288.682 36.4217C288.682 34.9409 287.381 33.7361 285.781 33.7361C284.182 33.7361 282.881 34.9409 282.881 36.4217C282.881 37.9025 284.182 39.1072 285.781 39.1072ZM285.781 35.201C286.508 35.201 287.1 35.7486 287.1 36.4217C287.1 37.0948 286.508 37.6424 285.781 37.6424C285.054 37.6424 284.463 37.0948 284.463 36.4217C284.463 35.7486 285.054 35.201 285.781 35.201Z" fill="#5CC3FF"/>
<path d="M286.419 40.7674H285.196C283.754 40.7674 282.51 41.5561 281.943 42.6889C280.775 41.5087 279.098 40.7674 277.237 40.7674H275.763C273.902 40.7674 272.225 41.5087 271.057 42.6889C270.49 41.5561 269.246 40.7674 267.804 40.7674H266.581C264.606 40.7674 263 42.2457 263 44.0628V49.3953C263 50.1842 263.696 50.826 264.551 50.826H269.388C269.469 51.7 270.263 52.3885 271.228 52.3885H281.772C282.737 52.3885 283.531 51.7 283.612 50.826H288.394C289.279 50.826 290 50.1614 290 49.3445V44.0628C290 42.2457 288.394 40.7674 286.419 40.7674ZM264.582 44.0628C264.582 43.0534 265.479 42.2322 266.581 42.2322H267.804C268.906 42.2322 269.803 43.0534 269.803 44.0628V44.5643C269.271 45.8467 269.381 46.6153 269.381 49.3611H264.582V44.0628ZM282.037 50.6785C282.037 50.8137 281.918 50.9236 281.772 50.9236H271.228C271.082 50.9236 270.963 50.8136 270.963 50.6785V46.6767C270.963 44.226 273.116 42.2322 275.763 42.2322H277.237C279.884 42.2322 282.037 44.226 282.037 46.6766V50.6785ZM288.418 49.3445C288.418 49.3698 288.713 49.3611 283.619 49.3611C283.619 46.595 283.728 45.8446 283.197 44.5643V44.0628C283.197 43.0534 284.094 42.2322 285.196 42.2322H286.419C287.521 42.2322 288.418 43.0534 288.418 44.0628V49.3445Z" fill="#5CC3FF"/>
<path d="M267.219 39.1072C268.818 39.1072 270.119 37.9025 270.119 36.4217C270.119 34.9409 268.818 33.7361 267.219 33.7361C265.619 33.7361 264.318 34.9409 264.318 36.4217C264.318 37.9025 265.619 39.1072 267.219 39.1072ZM267.219 35.201C267.946 35.201 268.537 35.7486 268.537 36.4217C268.537 37.0948 267.946 37.6424 267.219 37.6424C266.492 37.6424 265.9 37.0948 265.9 36.4217C265.9 35.7486 266.492 35.201 267.219 35.201Z" fill="#5CC3FF"/>
</g>
<path d="M456.25 365.193C455.836 365.193 455.5 365.503 455.5 365.884V370.718H434.5V365.884C434.5 365.503 434.164 365.193 433.75 365.193C433.336 365.193 433 365.503 433 365.884V371.409C433 371.79 433.336 372.099 433.75 372.099H456.25C456.664 372.099 457 371.79 457 371.409V365.884C457 365.503 456.664 365.193 456.25 365.193Z" fill="#5CC3FF"/>
<path d="M444.453 366.372C444.745 366.638 445.233 366.641 445.525 366.372L450.774 361.607C451.07 361.337 451.07 360.9 450.774 360.63C450.479 360.36 449.999 360.36 449.703 360.63L445.747 364.221V350.691C445.747 350.309 445.408 350 444.989 350C444.571 350 444.232 350.309 444.232 350.691V364.221L440.276 360.63C439.979 360.36 439.5 360.36 439.205 360.63C438.908 360.9 438.908 361.337 439.205 361.607L444.453 366.372Z" fill="#5CC3FF"/>
<path fill-rule="evenodd" clip-rule="evenodd" d="M89.0502 379.298H105.95C106.306 379.298 106.592 379.027 106.588 378.69V367.893C106.588 367.556 106.302 367.285 105.946 367.285H96.973L95.6445 365.014C95.5332 364.821 95.318 364.701 95.0842 364.701H89.0502C88.6939 364.701 88.4082 364.972 88.4082 365.309V378.69C88.4082 379.027 88.6939 379.298 89.0502 379.298ZM105.308 378.082H89.6922V365.918H94.7057L96.0379 368.189C96.1492 368.382 96.3645 368.502 96.5982 368.502H105.308V378.082ZM95.6777 372.686L95.6859 372.684C95.5269 372.684 95.3893 372.804 95.3893 372.955V373.186C95.3893 373.337 95.5229 373.467 95.682 373.467H99.2219L98.0991 374.527C98.0448 374.578 98.0149 374.643 98.0149 374.716C98.0149 374.79 98.0448 374.858 98.0991 374.91L98.2719 375.073C98.3262 375.125 98.3986 375.153 98.4758 375.153C98.5531 375.153 98.6255 375.125 98.6798 375.073L100.583 373.27C100.637 373.219 100.667 373.15 100.667 373.076C100.667 373.003 100.637 372.934 100.583 372.883L98.6798 371.08C98.6255 371.028 98.553 371 98.4758 371C98.3986 371 98.3262 371.029 98.2719 371.08L98.0991 371.244C98.0448 371.295 98.0149 371.365 98.0149 371.438C98.0149 371.511 98.0448 371.581 98.0991 371.632L99.2094 372.686H95.6777Z" fill="#202124"/>
<path d="M338 439.877C338 436.717 336.086 433.546 336.004 433.413C335.849 433.158 335.556 433 335.238 433C334.921 433 334.628 433.158 334.472 433.413C334.391 433.546 332.477 436.717 332.477 439.877C332.477 440.945 333.196 441.861 334.212 442.237C334.114 442.723 333.979 443.415 333.828 444.269H333.355C330.722 444.269 328.586 442.307 328.586 439.877C328.586 436.558 325.67 433.867 322.059 433.867C314.293 433.867 308 439.652 308 446.812C308 453.963 314.283 459.757 322.059 459.757C326.104 459.757 329.901 458.153 332.538 455.441C332.499 456.317 332.477 457.201 332.477 458.081C332.477 459.483 333.715 460.624 335.238 460.624C336.761 460.624 338 459.483 338 458.081C338 451.429 336.728 444.528 336.265 442.237C337.281 441.861 338 440.945 338 439.877ZM332.737 452.438C330.544 455.959 326.47 458.138 322.059 458.138C315.276 458.138 309.758 453.057 309.758 446.812C309.758 440.566 315.276 435.485 322.059 435.485C324.693 435.485 326.828 437.448 326.828 439.877C326.828 442.516 328.974 445.888 333.552 445.888C333.193 448.127 332.919 450.326 332.737 452.438ZM335.238 459.005C334.685 459.005 334.234 458.59 334.234 458.081C334.234 453.897 334.75 449.605 335.238 446.476C335.727 449.604 336.242 453.894 336.242 458.081C336.242 458.59 335.792 459.005 335.238 459.005ZM335.238 440.802C334.685 440.802 334.234 440.387 334.234 439.877C334.234 438.382 334.761 436.831 335.239 435.73C335.717 436.829 336.242 438.377 336.242 439.877C336.242 440.387 335.792 440.802 335.238 440.802Z" fill="#5CC3FF"/>
<path d="M322.059 437.334C320.537 437.334 319.298 438.475 319.298 439.877C319.298 441.279 320.537 442.42 322.059 442.42C323.582 442.42 324.821 441.279 324.821 439.877C324.821 438.475 323.582 437.334 322.059 437.334ZM322.059 440.801C321.506 440.801 321.055 440.387 321.055 439.877C321.055 439.367 321.506 438.953 322.059 438.953C322.613 438.953 323.063 439.367 323.063 439.877C323.063 440.387 322.613 440.801 322.059 440.801Z" fill="#5CC3FF"/>
<path d="M322.059 451.203C320.537 451.203 319.298 452.344 319.298 453.746C319.298 455.149 320.537 456.289 322.059 456.289C323.582 456.289 324.821 455.149 324.821 453.746C324.821 452.344 323.582 451.203 322.059 451.203ZM322.059 454.671C321.506 454.671 321.055 454.256 321.055 453.746C321.055 453.237 321.506 452.822 322.059 452.822C322.613 452.822 323.063 453.237 323.063 453.746C323.063 454.256 322.613 454.671 322.059 454.671Z" fill="#5CC3FF"/>
<path d="M315.535 440.802C314.012 440.802 312.774 441.943 312.774 443.345C312.774 444.747 314.012 445.888 315.535 445.888C317.058 445.888 318.297 444.747 318.297 443.345C318.297 441.943 317.058 440.802 315.535 440.802ZM315.535 444.27C314.982 444.27 314.531 443.855 314.531 443.345C314.531 442.835 314.982 442.421 315.535 442.421C316.089 442.421 316.539 442.835 316.539 443.345C316.539 443.855 316.089 444.27 315.535 444.27Z" fill="#5CC3FF"/>
<path d="M328.582 447.736C327.059 447.736 325.82 448.877 325.82 450.279C325.82 451.681 327.059 452.822 328.582 452.822C330.104 452.822 331.343 451.681 331.343 450.279C331.343 448.877 330.104 447.736 328.582 447.736ZM328.582 451.204C328.028 451.204 327.578 450.789 327.578 450.279C327.578 449.77 328.028 449.355 328.582 449.355C329.135 449.355 329.585 449.77 329.585 450.279C329.585 450.789 329.135 451.204 328.582 451.204Z" fill="#5CC3FF"/>
<path d="M315.535 447.736C314.012 447.736 312.774 448.877 312.774 450.279C312.774 451.681 314.012 452.822 315.535 452.822C317.058 452.822 318.297 451.681 318.297 450.279C318.297 448.877 317.058 447.736 315.535 447.736ZM315.535 451.204C314.982 451.204 314.531 450.789 314.531 450.279C314.531 449.77 314.982 449.355 315.535 449.355C316.089 449.355 316.539 449.77 316.539 450.279C316.539 450.789 316.089 451.204 315.535 451.204Z" fill="#5CC3FF"/>
<path d="M36.8602 473.611C36.6636 473.367 31.9808 467.626 25.9999 467.626C20.019 467.626 15.3359 473.367 15.1396 473.611C14.9535 473.843 14.9535 474.157 15.1396 474.389C15.3359 474.634 20.019 480.374 25.9999 480.374C31.9808 480.374 36.6636 474.633 36.8602 474.389C37.0466 474.157 37.0466 473.843 36.8602 473.611ZM25.9999 479.055C21.5943 479.055 17.7787 475.245 16.6491 474C17.7772 472.753 21.5849 468.945 25.9999 468.945C30.4052 468.945 34.2206 472.754 35.3506 474.001C34.2226 475.247 30.4149 479.055 25.9999 479.055Z" fill="#202124"/>
<path d="M25.9997 470.044C23.6002 470.044 21.648 471.819 21.648 474C21.648 476.182 23.6002 477.956 25.9997 477.956C28.3992 477.956 30.3514 476.182 30.3514 474C30.3514 471.819 28.3992 470.044 25.9997 470.044ZM25.9997 476.638C24.4 476.638 23.0986 475.455 23.0986 474C23.0986 472.546 24.4 471.363 25.9997 471.363C27.5994 471.363 28.9008 472.546 28.9008 474C28.9008 475.455 27.5994 476.638 25.9997 476.638Z" fill="#202124"/>
<path d="M140.25 437.5H141.75H153.75" stroke="#9E9FA3"/>
<path d="M144 437.5V436C144 435.602 144.158 435.221 144.439 434.94C144.72 434.658 145.102 434.5 145.5 434.5H148.5C148.897 434.5 149.279 434.658 149.56 434.94C149.842 435.221 150 435.602 150 436V437.5M152.25 437.5V448C152.25 448.398 152.092 448.78 151.81 449.061C151.529 449.342 151.147 449.5 150.75 449.5H143.25C142.852 449.5 142.47 449.342 142.189 449.061C141.908 448.78 141.75 448.398 141.75 448V437.5H152.25Z" stroke="#9E9FA3"/>
<path d="M148.5 441.25V445.75" stroke="#9E9FA3"/>
<path d="M145.5 441.25V445.75" stroke="#9E9FA3"/>
<path d="M41.4574 11.7863H41.5475L45.8968 10.9501C45.9815 10.9377 46.06 10.903 46.1222 10.8506L53.4911 4.34027C54.0294 3.86571 54.3298 3.22025 54.3249 2.54845C54.3259 1.87144 54.0266 1.22106 53.4911 0.736713C52.954 0.261132 52.2234 -0.00421011 51.463 9.60318e-05C50.6977 -0.00588684 49.9636 0.267915 49.4348 0.756643L42.0883 7.26692C42.0235 7.31299 41.9763 7.37552 41.9531 7.4461L41.0067 11.2886C40.9808 11.4265 41.031 11.5671 41.1419 11.6669C41.2251 11.7419 41.3385 11.7848 41.4574 11.7863ZM51.463 0.796465C52.5458 0.796389 53.4236 1.57184 53.4237 2.52845C53.4237 2.53512 53.4236 2.54179 53.4235 2.54845C53.4309 3.00418 53.2274 3.44284 52.8602 3.7629L50.0884 1.29415C50.4535 0.97355 50.9481 0.794445 51.463 0.796465ZM49.4573 1.87155L52.2292 4.32037L45.8066 9.97456L43.0348 7.54564L49.4573 1.87155ZM42.6743 8.34204L44.9052 10.313L42.0433 10.8705L42.6743 8.34204Z" fill="#A6A9B4"/>
<g clip-path="url(#clip3_1_254)">
<path d="M1216.84 489.535C1216.01 489.597 1215.29 489.03 1215.24 488.271C1215.18 487.511 1215.8 486.843 1216.63 486.78C1217.45 486.718 1218.17 487.285 1218.23 488.044C1218.29 488.804 1217.66 489.472 1216.84 489.535ZM1216.7 487.699C1216.42 487.719 1216.22 487.942 1216.23 488.195C1216.25 488.449 1216.49 488.638 1216.77 488.617C1217.04 488.596 1217.25 488.373 1217.23 488.12C1217.21 487.867 1216.97 487.678 1216.7 487.699Z" fill="#B3B3B3"/>
<path d="M1222.59 499.257C1222.46 499.266 1222.33 499.231 1222.23 499.149L1213.69 492.408C1213.59 492.329 1213.53 492.216 1213.52 492.094L1213.03 485.667C1213.02 485.413 1213.22 485.191 1213.5 485.17L1220.48 484.642C1220.61 484.632 1220.74 484.67 1220.84 484.749L1229.37 491.491C1229.58 491.655 1229.61 491.946 1229.42 492.14L1222.93 499.096C1222.84 499.193 1222.72 499.247 1222.59 499.257ZM1214.5 491.829L1222.5 498.148L1228.34 491.895L1220.34 485.575L1214.07 486.051L1214.5 491.829Z" fill="#B3B3B3"/>
</g>
<mask id="mask1_1_254" style="mask-type:alpha" maskUnits="userSpaceOnUse" x="135" y="241" width="30" height="30">
<rect x="135" y="241" width="30" height="30" fill="#D9D9D9"/>
</mask>
<g mask="url(#mask1_1_254)">
<path d="M144.906 258.344C144.677 258.344 144.474 258.255 144.297 258.078C144.12 257.901 144.031 257.698 144.031 257.469C144.031 257.24 144.12 257.036 144.297 256.859C144.474 256.682 144.677 256.594 144.906 256.594C145.135 256.594 145.338 256.682 145.515 256.859C145.692 257.036 145.781 257.24 145.781 257.469C145.781 257.698 145.692 257.901 145.515 258.078C145.338 258.255 145.135 258.344 144.906 258.344ZM150.031 258.344C149.802 258.344 149.598 258.255 149.421 258.078C149.244 257.901 149.156 257.698 149.156 257.469C149.156 257.24 149.244 257.036 149.421 256.859C149.598 256.682 149.802 256.594 150.031 256.594C150.26 256.594 150.463 256.682 150.64 256.859C150.817 257.036 150.906 257.24 150.906 257.469C150.906 257.698 150.817 257.901 150.64 258.078C150.463 258.255 150.26 258.344 150.031 258.344ZM155.094 258.344C154.864 258.344 154.661 258.255 154.484 258.078C154.307 257.901 154.218 257.698 154.218 257.469C154.218 257.24 154.307 257.036 154.484 256.859C154.661 256.682 154.864 256.594 155.094 256.594C155.323 256.594 155.526 256.682 155.703 256.859C155.88 257.036 155.968 257.24 155.968 257.469C155.968 257.698 155.88 257.901 155.703 258.078C155.526 258.255 155.323 258.344 155.094 258.344ZM142.125 266.875C141.625 266.875 141.208 266.708 140.874 266.375C140.541 266.042 140.375 265.625 140.375 265.125V249.25C140.375 248.75 140.541 248.333 140.874 248C141.208 247.667 141.625 247.5 142.125 247.5H144.781V244.75H145.687V247.5H154.437V244.75H155.218V247.5H157.875C158.375 247.5 158.791 247.667 159.125 248C159.458 248.333 159.624 248.75 159.624 249.25V265.125C159.624 265.625 159.458 266.042 159.125 266.375C158.791 266.708 158.375 266.875 157.875 266.875H142.125ZM142.125 266.125H157.875C158.125 266.125 158.354 266.021 158.562 265.812C158.77 265.604 158.874 265.375 158.874 265.125V254.438H141.125V265.125C141.125 265.375 141.229 265.604 141.437 265.812C141.645 266.021 141.875 266.125 142.125 266.125ZM141.125 253.688H158.874V249.25C158.874 249 158.77 248.771 158.562 248.562C158.354 248.354 158.125 248.25 157.875 248.25H142.125C141.875 248.25 141.645 248.354 141.437 248.562C141.229 248.771 141.125 249 141.125 249.25V253.688Z" fill="#1C1B1F"/>
</g>
<mask id="mask2_1_254" style="mask-type:alpha" maskUnits="userSpaceOnUse" x="312" y="234" width="46" height="47">
<rect x="312" y="234" width="46" height="46.6093" fill="#D9D9D9"/>
</mask>
<g mask="url(#mask2_1_254)">
<path d="M321.057 248.779L320.243 247.995L322.878 245.409C323.613 244.701 324.444 244.178 325.37 243.84C326.296 243.5 327.254 243.331 328.245 243.331C329.203 243.331 330.145 243.508 331.072 243.863C331.998 244.217 332.829 244.732 333.564 245.409L337.157 248.871C337.765 249.456 338.467 249.91 339.265 250.233C340.064 250.557 340.879 250.718 341.709 250.718C342.572 250.718 343.394 250.557 344.177 250.233C344.96 249.91 345.655 249.456 346.262 248.871L348.945 246.378L349.759 247.164L347.124 249.749C346.389 250.457 345.55 250.98 344.608 251.319C343.666 251.657 342.7 251.827 341.709 251.827C340.719 251.827 339.753 251.657 338.81 251.319C337.868 250.98 337.029 250.457 336.295 249.749L332.701 246.286C332.094 245.701 331.399 245.247 330.617 244.924C329.834 244.601 329.044 244.439 328.245 244.439C327.415 244.439 326.608 244.593 325.825 244.901C325.042 245.209 324.347 245.671 323.74 246.286L321.057 248.779ZM321.057 256.905L320.243 256.12L322.878 253.535C323.613 252.827 324.444 252.303 325.37 251.965C326.296 251.627 327.254 251.458 328.245 251.458C329.203 251.458 330.145 251.634 331.072 251.988C331.998 252.342 332.829 252.858 333.564 253.535L337.157 256.998C337.765 257.582 338.467 258.036 339.265 258.36C340.064 258.683 340.879 258.844 341.709 258.844C342.572 258.844 343.394 258.683 344.177 258.36C344.96 258.036 345.655 257.582 346.262 256.998L348.945 254.505L349.759 255.243L347.124 257.874C346.389 258.583 345.55 259.106 344.608 259.445C343.666 259.783 342.7 259.952 341.709 259.952C340.719 259.952 339.753 259.783 338.81 259.445C337.868 259.106 337.029 258.583 336.295 257.874L332.701 254.366C332.094 253.781 331.399 253.335 330.617 253.027C329.834 252.719 329.044 252.566 328.245 252.566C327.415 252.566 326.608 252.712 325.825 253.003C325.042 253.296 324.347 253.75 323.74 254.366L321.057 256.905ZM321.057 265.031L320.243 264.246L322.878 261.661C323.613 260.953 324.444 260.414 325.37 260.045C326.296 259.676 327.254 259.491 328.245 259.491C329.203 259.491 330.145 259.683 331.072 260.068C331.998 260.452 332.829 260.983 333.564 261.661L337.157 265.123C337.765 265.708 338.467 266.17 339.265 266.508C340.064 266.847 340.879 267.016 341.709 267.016C342.572 267.016 343.394 266.847 344.177 266.508C344.96 266.17 345.655 265.708 346.262 265.123L348.945 262.63L349.759 263.369L347.124 266.001C346.389 266.709 345.55 267.239 344.608 267.593C343.666 267.947 342.7 268.124 341.709 268.124C340.719 268.124 339.753 267.947 338.81 267.593C337.868 267.239 337.029 266.709 336.295 266.001L332.701 262.492C332.094 261.876 331.399 261.407 330.617 261.083C329.834 260.761 329.044 260.599 328.245 260.599C327.415 260.599 326.608 260.753 325.825 261.06C325.042 261.368 324.347 261.845 323.74 262.492L321.057 265.031Z" fill="#313131"/>
</g>
<defs>
<filter id="filter0_bd_1_254" x="817.634" y="145.5" width="248.68" height="276.568" filterUnits="userSpaceOnUse" color-interpolation-filters="sRGB">
<feFlood flood-opacity="0" result="BackgroundImageFix"/>
<feGaussianBlur in="BackgroundImageFix" stdDeviation="12.5"/>
<feComposite in2="SourceAlpha" operator="in" result="effect1_backgroundBlur_1_254"/>
<feColorMatrix in="SourceAlpha" type="matrix" values="0 0 0 0 0 0 0 0 0 0 0 0 0 0 0 0 0 0 127 0" result="hardAlpha"/>
<feOffset dy="44"/>
<feGaussianBlur stdDeviation="42"/>
<feComposite in2="hardAlpha" operator="out"/>
<feColorMatrix type="matrix" values="0 0 0 0 0 0 0 0 0 0 0 0 0 0 0 0 0 0 0.03 0"/>
<feBlend mode="normal" in2="effect1_backgroundBlur_1_254" result="effect2_dropShadow_1_254"/>
<feBlend mode="normal" in="SourceGraphic" in2="effect2_dropShadow_1_254" result="shape"/>
</filter>
<filter id="filter1_bd_1_254" x="801.5" y="159.287" width="248.68" height="276.568" filterUnits="userSpaceOnUse" color-interpolation-filters="sRGB">
<feFlood flood-opacity="0" result="BackgroundImageFix"/>
<feGaussianBlur in="BackgroundImageFix" stdDeviation="12.5"/>
<feComposite in2="SourceAlpha" operator="in" result="effect1_backgroundBlur_1_254"/>
<feColorMatrix in="SourceAlpha" type="matrix" values="0 0 0 0 0 0 0 0 0 0 0 0 0 0 0 0 0 0 127 0" result="hardAlpha"/>
<feOffset dy="44"/>
<feGaussianBlur stdDeviation="42"/>
<feComposite in2="hardAlpha" operator="out"/>
<feColorMatrix type="matrix" values="0 0 0 0 0 0 0 0 0 0 0 0 0 0 0 0 0 0 0.03 0"/>
<feBlend mode="normal" in2="effect1_backgroundBlur_1_254" result="effect2_dropShadow_1_254"/>
<feBlend mode="normal" in="SourceGraphic" in2="effect2_dropShadow_1_254" result="shape"/>
</filter>
<filter id="filter2_bd_1_254" x="191.687" y="145.5" width="248.68" height="276.568" filterUnits="userSpaceOnUse" color-interpolation-filters="sRGB">
<feFlood flood-opacity="0" result="BackgroundImageFix"/>
<feGaussianBlur in="BackgroundImageFix" stdDeviation="12.5"/>
<feComposite in2="SourceAlpha" operator="in" result="effect1_backgroundBlur_1_254"/>
<feColorMatrix in="SourceAlpha" type="matrix" values="0 0 0 0 0 0 0 0 0 0 0 0 0 0 0 0 0 0 127 0" result="hardAlpha"/>
<feOffset dy="44"/>
<feGaussianBlur stdDeviation="42"/>
<feComposite in2="hardAlpha" operator="out"/>
<feColorMatrix type="matrix" values="0 0 0 0 0 0 0 0 0 0 0 0 0 0 0 0 0 0 0.03 0"/>
<feBlend mode="normal" in2="effect1_backgroundBlur_1_254" result="effect2_dropShadow_1_254"/>
<feBlend mode="normal" in="SourceGraphic" in2="effect2_dropShadow_1_254" result="shape"/>
</filter>
<filter id="filter3_bd_1_254" x="207.82" y="159.287" width="248.68" height="276.568" filterUnits="userSpaceOnUse" color-interpolation-filters="sRGB">
<feFlood flood-opacity="0" result="BackgroundImageFix"/>
<feGaussianBlur in="BackgroundImageFix" stdDeviation="12.5"/>
<feComposite in2="SourceAlpha" operator="in" result="effect1_backgroundBlur_1_254"/>
<feColorMatrix in="SourceAlpha" type="matrix" values="0 0 0 0 0 0 0 0 0 0 0 0 0 0 0 0 0 0 127 0" result="hardAlpha"/>
<feOffset dy="44"/>
<feGaussianBlur stdDeviation="42"/>
<feComposite in2="hardAlpha" operator="out"/>
<feColorMatrix type="matrix" values="0 0 0 0 0 0 0 0 0 0 0 0 0 0 0 0 0 0 0.03 0"/>
<feBlend mode="normal" in2="effect1_backgroundBlur_1_254" result="effect2_dropShadow_1_254"/>
<feBlend mode="normal" in="SourceGraphic" in2="effect2_dropShadow_1_254" result="shape"/>
</filter>
<clipPath id="clip0_1_254">
<rect width="33.6" height="33.6" fill="white" transform="translate(1002.2 377.2)"/>
</clipPath>
<clipPath id="clip1_1_254">
<rect width="63.454" height="63.454" fill="white" transform="translate(1066 57.7607) rotate(-38.8004)"/>
</clipPath>
<clipPath id="clip2_1_254">
<rect width="27" height="25" fill="white" transform="translate(263 29)"/>
</clipPath>
<clipPath id="clip3_1_254">
<rect width="16" height="14.7327" fill="white" transform="translate(1213 485.208) rotate(-4.33069)"/>
</clipPath>
</defs>
</svg>
