<svg width="689" height="116" viewBox="0 0 689 116" fill="none" xmlns="http://www.w3.org/2000/svg">
<g filter="url(#filter0_d_1_747)">
<path d="M74.1387 76.8396C73.1717 78.016 71.8466 79.2103 70.1633 80.4225C68.48 81.6346 66.4923 82.7219 64.2002 83.6845C61.8723 84.6827 59.2758 85.4848 56.4107 86.0909C53.5455 86.697 50.4655 87 47.1706 87C44.3055 87 41.6015 86.6613 39.0587 85.984C36.5517 85.3422 34.2417 84.3975 32.1287 83.1497C30.0515 81.8663 28.1533 80.2977 26.4342 78.4438C24.751 76.59 23.3184 74.4688 22.1365 72.0802C20.7756 69.4421 19.737 66.4652 19.0207 63.1497C18.3402 59.8342 18 56.2335 18 52.3476V41.7594C18 38.0517 18.3402 34.6114 19.0207 31.4385C19.7012 28.2299 20.6682 25.3244 21.9216 22.7219C23.1035 20.4046 24.4645 18.3191 26.0045 16.4652C27.5803 14.6114 29.2994 13.0071 31.1617 11.6524C33.3464 10.1194 35.728 8.96078 38.3066 8.17647C40.8852 7.39216 43.6071 7 46.4722 7C50.8774 7 54.7095 7.55258 57.9686 8.65775C61.2635 9.76292 64.0391 11.3494 66.2954 13.4171C68.5517 15.5205 70.3066 18.0695 71.56 21.0642C72.8494 24.0588 73.691 27.4278 74.0849 31.1711H59.3653C59.1146 29.2816 58.7207 27.6061 58.1835 26.1444C57.6821 24.6827 56.9837 23.4528 56.0883 22.4545C55.0855 21.3494 53.8141 20.5294 52.2741 19.9947C50.7699 19.4242 48.9613 19.139 46.8483 19.139C45.7022 19.139 44.592 19.3173 43.5176 19.6738C42.4432 20.0303 41.4404 20.5472 40.5092 21.2246C39.2915 22.1515 38.1813 23.3636 37.1785 24.861C36.2115 26.3583 35.4057 28.123 34.761 30.1551C34.2596 31.7237 33.8657 33.4706 33.5792 35.3957C33.3285 37.3209 33.2031 39.4064 33.2031 41.6524V52.3476C33.2031 55.164 33.3822 57.7308 33.7403 60.0481C34.1343 62.3654 34.6715 64.4153 35.352 66.1979C35.7817 67.2317 36.2652 68.1943 36.8024 69.0856C37.3755 69.9412 38.0022 70.7077 38.6827 71.385C39.8287 72.5258 41.1538 73.3993 42.658 74.0053C44.198 74.5758 45.935 74.8788 47.869 74.9144C49.0509 74.9144 50.2148 74.8253 51.3609 74.6471C52.5069 74.4688 53.5813 74.2192 54.5841 73.8984C55.5869 73.5775 56.4644 73.221 57.2165 72.8289C58.0044 72.4011 58.5953 71.9554 58.9893 71.492L59.043 57.3743H46.0962V46.1444H74.0849L74.1387 76.8396Z" fill="black"/>
<path d="M142.468 85.9305H127.533V52.1872H105.4V85.9305H90.4119V8.06952H105.4V39.9947H127.533V8.06952H142.468V85.9305Z" fill="black"/>
<path d="M215.9 52.7219C215.9 56.0731 215.596 59.2638 214.987 62.2941C214.378 65.2888 213.501 68.0695 212.355 70.6364C211.137 73.2032 209.633 75.5561 207.842 77.6952C206.051 79.8342 204.01 81.6168 201.718 83.0428C199.641 84.2906 197.349 85.2531 194.842 85.9305C192.37 86.6435 189.702 87 186.837 87C183.793 87 180.982 86.6078 178.403 85.8235C175.824 85.0392 173.478 83.934 171.365 82.508C169.288 81.0107 167.426 79.2103 165.778 77.107C164.131 74.9679 162.752 72.5615 161.642 69.8877C160.639 67.4278 159.869 64.754 159.332 61.8663C158.831 58.9786 158.58 55.9305 158.58 52.7219V41.385C158.58 37.9626 158.866 34.7184 159.439 31.6524C160.048 28.5865 160.926 25.7522 162.072 23.1497C163.182 20.6898 164.525 18.4617 166.101 16.4652C167.712 14.4688 169.557 12.7576 171.634 11.3316C173.675 9.94118 175.968 8.87166 178.51 8.12299C181.053 7.37433 183.811 7 186.783 7C189.792 7 192.603 7.39216 195.218 8.17647C197.868 8.92513 200.25 10.0125 202.363 11.4385C204.476 12.7932 206.32 14.4332 207.896 16.3583C209.508 18.2834 210.886 20.4046 212.032 22.7219C213.286 25.3601 214.235 28.2478 214.88 31.385C215.56 34.5223 215.9 37.8556 215.9 41.385V52.7219ZM200.59 41.2781C200.59 39.2816 200.482 37.3922 200.267 35.6096C200.088 33.7914 199.784 32.1159 199.354 30.5829C198.817 28.6578 198.101 26.9465 197.205 25.4492C196.31 23.9162 195.253 22.6684 194.036 21.7059C193.069 20.9929 191.976 20.4403 190.759 20.0481C189.577 19.656 188.252 19.4599 186.783 19.4599C185.387 19.4599 184.115 19.6381 182.969 19.9947C181.859 20.3512 180.856 20.8681 179.961 21.5455C178.743 22.5437 177.705 23.7914 176.845 25.2888C176.021 26.7861 175.377 28.533 174.911 30.5294C174.553 32.0624 174.284 33.738 174.105 35.5561C173.962 37.3743 173.89 39.2816 173.89 41.2781V52.7219C173.89 54.6114 173.962 56.4296 174.105 58.1765C174.249 59.9234 174.499 61.5455 174.857 63.0428C175.251 64.9323 175.824 66.6613 176.576 68.2299C177.364 69.7629 178.278 71.0107 179.316 71.9733C180.283 72.8289 181.376 73.4884 182.593 73.9519C183.847 74.4153 185.261 74.6471 186.837 74.6471C188.341 74.6471 189.72 74.4332 190.974 74.0053C192.227 73.5775 193.337 72.9537 194.304 72.1337C195.522 71.1355 196.543 69.8877 197.367 68.3904C198.226 66.8574 198.907 65.1283 199.408 63.2032C199.802 61.7059 200.088 60.066 200.267 58.2834C200.482 56.5009 200.59 54.6471 200.59 52.7219V41.2781Z" fill="black"/>
<path d="M272.411 65.6096C272.411 64.2193 272.16 62.918 271.659 61.7059C271.193 60.4938 270.387 59.3529 269.241 58.2834C268.059 57.2496 266.519 56.3048 264.621 55.4492C262.759 54.5579 260.431 53.738 257.637 52.9893C253.304 51.8128 249.49 50.3868 246.195 48.7112C242.936 47.0356 240.268 45.1996 238.19 43.2032C236.113 41.2068 234.537 38.9964 233.463 36.5722C232.424 34.1479 231.905 31.5098 231.905 28.6578C231.905 25.3779 232.603 22.4011 234 19.7273C235.397 17.0535 237.331 14.7718 239.802 12.8824C242.273 10.9929 245.192 9.54902 248.559 8.5508C251.925 7.51693 255.578 7 259.518 7C263.601 7 267.325 7.58824 270.692 8.76471C274.094 9.94118 277.013 11.5811 279.448 13.6845C281.884 15.8235 283.782 18.3547 285.143 21.2781C286.504 24.2014 287.184 27.41 287.184 30.9037H272.465C272.393 29.1569 272.071 27.5526 271.498 26.0909C270.96 24.6292 270.154 23.3636 269.08 22.2941C267.97 21.2602 266.591 20.4581 264.944 19.8877C263.332 19.2816 261.434 18.9786 259.249 18.9786C257.243 18.9786 255.453 19.2282 253.877 19.7273C252.337 20.1907 251.03 20.8503 249.955 21.7059C248.881 22.5971 248.057 23.6488 247.484 24.861C246.947 26.0374 246.678 27.3209 246.678 28.7112C246.678 30.1729 247.036 31.492 247.753 32.6684C248.505 33.8449 249.579 34.8966 250.976 35.8235C252.373 36.7861 254.056 37.6595 256.026 38.4438C258.031 39.2282 260.288 39.959 262.795 40.6364C265.481 41.385 268.041 42.2941 270.477 43.3636C272.912 44.4332 275.151 45.6631 277.192 47.0535C280.272 49.3351 282.725 51.9911 284.552 55.0214C286.378 58.0517 287.292 61.5455 287.292 65.5027C287.292 68.9251 286.593 71.9733 285.196 74.6471C283.835 77.2852 281.937 79.5134 279.502 81.3315C277.067 83.1854 274.166 84.5936 270.799 85.5561C267.433 86.4831 263.762 86.9465 259.786 86.9465C255.883 86.9465 252.015 86.3761 248.182 85.2353C244.386 84.0588 241.073 82.3476 238.244 80.1016C235.558 77.8913 233.427 75.2888 231.851 72.2941C230.311 69.2995 229.541 65.7879 229.541 61.7594H244.368C244.44 64.1123 244.852 66.1266 245.604 67.8021C246.356 69.4777 247.412 70.8503 248.773 71.9198C250.099 72.9893 251.692 73.7736 253.555 74.2727C255.453 74.7718 257.53 75.0214 259.786 75.0214C261.792 75.0214 263.565 74.7897 265.105 74.3262C266.681 73.8627 268.006 73.221 269.08 72.4011C270.154 71.5811 270.978 70.6007 271.551 69.4599C272.124 68.2834 272.411 67 272.411 65.6096Z" fill="black"/>
<path d="M359.757 20.3155H335.636V85.9305H320.487V20.3155H296.688V8.06952H359.757V20.3155Z" fill="black"/>
<path d="M372.431 85.9305V8.06952H392.684C396.301 8.06952 399.686 8.51515 402.837 9.40642C405.989 10.262 408.854 11.492 411.433 13.0963C413.689 14.4153 415.695 16.0374 417.449 17.9626C419.24 19.852 420.798 21.9198 422.123 24.1658C423.663 26.9109 424.845 29.9412 425.669 33.2567C426.528 36.5722 426.958 40.1016 426.958 43.8449V50.262C426.958 53.8627 426.564 57.2674 425.776 60.4759C424.988 63.6845 423.878 66.6257 422.446 69.2995C421.085 71.6881 419.491 73.8984 417.664 75.9305C415.838 77.9269 413.832 79.6025 411.648 80.9572C409.105 82.5615 406.293 83.7914 403.213 84.6471C400.169 85.5027 396.91 85.9305 393.436 85.9305H372.431ZM387.634 20.262V73.8449H393.436C395.298 73.8449 397.035 73.6132 398.647 73.1497C400.259 72.6863 401.727 72.0089 403.052 71.1176C404.413 70.1907 405.631 69.0143 406.705 67.5882C407.815 66.1266 408.765 64.4332 409.552 62.508C410.197 60.8324 410.681 58.9786 411.003 56.9465C411.361 54.8788 411.54 52.6506 411.54 50.262V43.738C411.54 41.492 411.361 39.3708 411.003 37.3743C410.681 35.3422 410.197 33.4884 409.552 31.8128C408.765 29.8164 407.726 28.0339 406.437 26.4652C405.183 24.8966 403.715 23.6132 402.031 22.615C400.742 21.8663 399.31 21.2959 397.734 20.9037C396.194 20.4759 394.51 20.262 392.684 20.262H387.634Z" fill="black"/>
<path d="M469.77 56.8396H458.327V85.9305H443.231V8.06952H469.447C473.781 8.06952 477.702 8.58645 481.212 9.62032C484.722 10.6185 487.73 12.098 490.237 14.0588C492.709 16.0196 494.607 18.4617 495.932 21.385C497.293 24.3084 497.973 27.6952 497.973 31.5455C497.973 34.3262 497.633 36.8396 496.953 39.0856C496.308 41.2959 495.377 43.2745 494.159 45.0214C492.906 46.8039 491.401 48.3547 489.646 49.6738C487.927 50.9929 485.993 52.1337 483.845 53.0963L500.659 85.2353V85.9305H484.489L469.77 56.8396ZM458.327 44.6471H469.501C471.829 44.6471 473.87 44.3262 475.625 43.6845C477.416 43.0071 478.866 42.0446 479.977 40.7968C480.908 39.7986 481.606 38.6043 482.072 37.2139C482.573 35.8235 482.824 34.2727 482.824 32.5615C482.824 30.4938 482.502 28.6756 481.857 27.107C481.248 25.5027 480.317 24.1836 479.063 23.1497C477.953 22.2228 476.592 21.5098 474.981 21.0107C473.369 20.5116 471.524 20.262 469.447 20.262H458.327V44.6471Z" fill="black"/>
<path d="M515.386 8.06952H530.472V20.2086V73.8449V79.9561V85.9305H515.386V73.8449H515.376V20.2086H515.386V8.06952Z" fill="black"/>
<path d="M569.363 85.9305L545.726 8.06952H562.38L575.649 58.9251L576.992 64.1658L578.442 58.8717L591.765 8.06952H608.419L584.728 85.9305H569.363Z" fill="black"/>
<path d="M669.517 51.8128H621.608V73.5787L671 73.7914V85.9305H621.608V8.06952H670.839V20.3155H621.608V39.9412H669.517V51.8128Z" fill="black"/>
</g>
<defs>
<filter id="filter0_d_1_747" x="0" y="0" width="689" height="116" filterUnits="userSpaceOnUse" color-interpolation-filters="sRGB">
<feFlood flood-opacity="0" result="BackgroundImageFix"/>
<feColorMatrix in="SourceAlpha" type="matrix" values="0 0 0 0 0 0 0 0 0 0 0 0 0 0 0 0 0 0 127 0" result="hardAlpha"/>
<feOffset dy="11"/>
<feGaussianBlur stdDeviation="9"/>
<feComposite in2="hardAlpha" operator="out"/>
<feColorMatrix type="matrix" values="0 0 0 0 0 0 0 0 0 0 0 0 0 0 0 0 0 0 0.4 0"/>
<feBlend mode="normal" in2="BackgroundImageFix" result="effect1_dropShadow_1_747"/>
<feBlend mode="normal" in="SourceGraphic" in2="effect1_dropShadow_1_747" result="shape"/>
</filter>
</defs>
</svg>
