<svg width="31" height="30" viewBox="0 0 31 30" fill="none" xmlns="http://www.w3.org/2000/svg">
<g id="4691321_linux_icon 1" clip-path="url(#clip0_1_731)">
<path id="Vector" d="M15.9621 0C15.7683 0 15.5683 0.01 15.3633 0.02625C10.0796 0.4425 11.4808 6.035 11.4008 7.89875C11.3046 9.265 11.0258 10.3413 10.0871 11.675C8.98081 12.9888 7.42831 15.1125 6.69206 17.3263C6.34456 18.3663 6.17956 19.4312 6.33331 20.4375C6.28456 20.48 6.23831 20.5225 6.19456 20.6063C5.86956 20.9412 5.63331 21.3575 5.36706 21.655C5.11831 21.9037 4.76081 21.9888 4.37081 22.155C3.97956 22.325 3.54831 22.4913 3.29081 23.0063C3.17831 23.2413 3.12081 23.4975 3.12581 23.7575C3.12581 24.0063 3.15956 24.2587 3.19456 24.4275C3.26706 24.9263 3.33956 25.3387 3.24331 25.64C2.93331 26.49 2.89456 27.0725 3.11206 27.4963C3.32956 27.9137 3.78081 28.0825 4.28581 28.2475C5.29956 28.4975 6.67331 28.4163 7.75456 28.9963C8.91206 29.58 10.0871 29.835 11.0246 29.5837C11.6821 29.44 12.2371 29.005 12.5346 28.4025C13.2683 28.3988 14.0721 28.0662 15.3596 27.985C16.2333 27.9125 17.3271 28.3188 18.5821 28.2337C18.6133 28.4025 18.6608 28.4825 18.7246 28.6512L18.7283 28.655C19.2171 29.6275 20.1196 30.07 21.0833 29.9938C22.0471 29.9188 23.0733 29.3237 23.9046 28.3612C24.6933 27.405 26.0083 27.0063 26.8771 26.4825C27.3121 26.2338 27.6633 25.8962 27.6883 25.4163C27.7171 24.9163 27.4396 24.4012 26.7958 23.695V23.5737L26.7921 23.57C26.5796 23.32 26.4796 22.9013 26.3696 22.4125C26.2633 21.9113 26.1421 21.43 25.7546 21.105H25.7508C25.6771 21.0375 25.5971 21.0212 25.5158 20.9363C25.4458 20.8888 25.3646 20.8587 25.2783 20.8562C25.8171 19.2587 25.6083 17.6688 25.0621 16.2388C24.3958 14.4763 23.2308 12.9413 22.3433 11.885C21.3483 10.6288 20.3733 9.43875 20.3921 7.67375C20.4258 4.98375 20.6883 0.0075 15.9621 0ZM16.6233 4.25625H16.6396C16.9058 4.25625 17.1346 4.33375 17.3696 4.50375C17.6083 4.6725 17.7821 4.91875 17.9183 5.17C18.0496 5.49375 18.1158 5.74375 18.1258 6.075C18.1258 6.05 18.1333 6.025 18.1333 6.00125V6.13125C18.1308 6.1225 18.1283 6.1125 18.1283 6.105L18.1233 6.075C18.1208 6.37875 18.0571 6.67875 17.9358 6.9575C17.8771 7.11375 17.7871 7.2575 17.6696 7.37625C17.6333 7.35625 17.5983 7.33875 17.5596 7.32375C17.4283 7.2675 17.3108 7.24375 17.2033 7.1575C17.1146 7.1225 17.0221 7.09375 16.9296 7.075C16.9908 7.00125 17.1108 6.90875 17.1571 6.8275C17.2233 6.6675 17.2596 6.4975 17.2671 6.325V6.30125C17.2696 6.1325 17.2446 5.9625 17.1908 5.80125C17.1346 5.6325 17.0646 5.55 16.9621 5.38375C16.8571 5.30125 16.7533 5.21875 16.6283 5.21875H16.6083C16.4921 5.21875 16.3883 5.25625 16.2808 5.38375C16.1621 5.50125 16.0733 5.6425 16.0246 5.80125C15.9583 5.96 15.9196 6.13125 15.9121 6.30125V6.325C15.9146 6.43625 15.9221 6.54875 15.9371 6.65875C15.6958 6.575 15.3896 6.49 15.1783 6.40625C15.1658 6.325 15.1583 6.24125 15.1558 6.1575V6.1325C15.1458 5.8025 15.2096 5.475 15.3433 5.17125C15.4458 4.8975 15.6333 4.66375 15.8808 4.505C16.0946 4.34375 16.3546 4.25625 16.6233 4.25625ZM12.9208 4.33H12.9658C13.1433 4.33 13.3033 4.39 13.4646 4.49875C13.6471 4.66 13.7946 4.85875 13.8946 5.08C14.0071 5.32875 14.0708 5.58125 14.0858 5.91375V5.91875C14.0946 6.08625 14.0933 6.17 14.0833 6.25125V6.35125C14.0458 6.36 14.0133 6.37375 13.9796 6.38125C13.7896 6.45 13.6371 6.55 13.4883 6.63125C13.5033 6.52 13.5046 6.4075 13.4921 6.2975V6.27875C13.4771 6.1125 13.4433 6.03 13.3896 5.8625C13.3508 5.735 13.2796 5.62125 13.1821 5.52875C13.1208 5.4725 13.0383 5.44375 12.9533 5.44875H12.9271C12.8383 5.45625 12.7646 5.5 12.6946 5.61375C12.6146 5.71 12.5633 5.8275 12.5446 5.95125C12.5108 6.08625 12.5008 6.225 12.5158 6.365V6.3825C12.5308 6.55125 12.5621 6.63375 12.6171 6.8C12.6733 6.9675 12.7383 7.05 12.8233 7.135C12.8371 7.14625 12.8496 7.1575 12.8658 7.165C12.7783 7.23625 12.7196 7.2525 12.6458 7.335C12.5996 7.37 12.5458 7.41 12.4821 7.42C12.3521 7.26375 12.2371 7.095 12.1383 6.9175C12.0183 6.655 11.9558 6.37 11.9446 6.08375C11.9233 5.80125 11.9583 5.51875 12.0446 5.24875C12.1133 5.0025 12.2346 4.775 12.3983 4.58C12.5583 4.41375 12.7233 4.33 12.9208 4.33ZM14.6346 6.4625C15.0483 6.4625 15.5496 6.54375 16.1533 6.96125C16.5196 7.21125 16.8071 7.2975 17.4696 7.54625H17.4733C17.7921 7.71625 17.9796 7.87875 18.0708 8.045V7.88125C18.1621 8.065 18.1683 8.27875 18.0908 8.46875C17.9371 8.8575 17.4458 9.27375 16.7608 9.5225V9.525C16.4258 9.69375 16.1346 9.94125 15.7921 10.1062C15.4471 10.275 15.0571 10.4713 14.5271 10.44C14.3371 10.45 14.1458 10.4212 13.9671 10.3562C13.8296 10.2812 13.6946 10.1987 13.5646 10.1087C13.3208 9.94 13.1108 9.69375 12.7996 9.5275V9.52125H12.7933C12.2933 9.21375 12.0233 8.88125 11.9358 8.6325C11.8496 8.2975 11.9296 8.04625 12.1771 7.8825C12.4571 7.71375 12.6521 7.54375 12.7808 7.4625C12.9108 7.37 12.9596 7.335 13.0008 7.29875H13.0033V7.295C13.2146 7.0425 13.5483 6.70875 14.0521 6.54375C14.2258 6.49875 14.4196 6.4625 14.6346 6.4625ZM18.1333 9.14125C18.5821 10.9125 19.6296 13.485 20.3033 14.7325C20.6608 15.4 21.3721 16.8062 21.6808 18.5125C21.8758 18.5063 22.0921 18.535 22.3221 18.5925C23.1296 16.5037 21.6396 14.2587 20.9608 13.635C20.6846 13.3837 20.6708 13.2162 20.8071 13.2162C21.5433 13.8837 22.5133 15.1812 22.8646 16.6625C23.0258 17.3312 23.0633 18.0425 22.8908 18.75C22.9746 18.785 23.0596 18.8263 23.1471 18.8337C24.4371 19.5013 24.9133 20.0063 24.6846 20.755V20.7013C24.6083 20.6975 24.5346 20.7013 24.4583 20.7013H24.4396C24.6283 20.1175 24.2121 19.67 23.1083 19.1712C21.9646 18.6712 21.0508 18.7512 20.8946 19.7525C20.8858 19.8062 20.8796 19.835 20.8733 19.9212C20.7883 19.95 20.6996 19.9875 20.6121 20.0012C20.0746 20.3362 19.7846 20.8375 19.6208 21.485C19.4583 22.1512 19.4083 22.93 19.3646 23.8212V23.825C19.3383 24.2425 19.1508 24.8725 18.9658 25.5137C17.0908 26.8537 14.4908 27.4363 12.2796 25.9313C12.1408 25.69 11.9721 25.4637 11.7771 25.265C11.6846 25.1087 11.5671 24.9688 11.4333 24.8475C11.6608 24.8475 11.8558 24.8113 12.0146 24.7638C12.1958 24.68 12.3358 24.5287 12.4071 24.3462C12.5421 24.0125 12.4071 23.475 11.9758 22.8925C11.5446 22.3087 10.8121 21.6487 9.74081 20.9912C8.95331 20.4925 8.50831 19.9038 8.30331 19.2463C8.09706 18.5788 8.12456 17.89 8.28456 17.19C8.59081 15.8525 9.37581 14.5525 9.87706 13.7362C10.0108 13.655 9.92331 13.905 9.36706 14.9538C8.87206 15.8925 7.94081 18.075 9.21456 19.7712C9.26206 18.535 9.53706 17.315 10.0233 16.1763C10.7283 14.5787 12.2021 11.7963 12.3183 9.59125C12.3783 9.63625 12.5896 9.76 12.6796 9.84375C12.9521 10.01 13.1546 10.26 13.4171 10.425C13.6808 10.6763 14.0133 10.8438 14.5121 10.8438C14.5608 10.8475 14.6058 10.8512 14.6508 10.8512C15.1646 10.8512 15.5621 10.6838 15.8958 10.5163C16.2583 10.3488 16.5471 10.0987 16.8208 10.0162H16.8271C17.4108 9.8475 17.8721 9.51375 18.1333 9.14125ZM20.8658 20.3387C20.9121 21.09 21.2946 21.895 21.9683 22.06C22.7033 22.2275 23.7608 21.6437 24.2071 21.1037L24.4708 21.0925C24.8646 21.0825 25.1921 21.105 25.5296 21.4263L25.5333 21.43C25.7933 21.6787 25.9146 22.0938 26.0221 22.525C26.1283 23.0263 26.2146 23.5 26.5333 23.8575C27.1408 24.5163 27.3396 24.99 27.3283 25.2825L27.3321 25.275V25.2975L27.3283 25.2825C27.3096 25.61 27.0971 25.7775 26.7058 26.0262C25.9183 26.5275 24.5233 26.9163 23.6346 27.9888C22.8621 28.91 21.9208 29.4125 21.0896 29.4775C20.2596 29.5438 19.5433 29.2275 19.1221 28.355L19.1158 28.3512C18.8533 27.85 18.9658 27.07 19.1858 26.2387C19.4058 25.4037 19.7208 24.5575 19.7646 23.8663C19.8108 22.9738 19.8596 22.1975 20.0083 21.5987C20.1583 21.0175 20.3933 20.6025 20.8096 20.3687L20.8658 20.3413V20.3387ZM7.34706 20.4H7.35956C7.42581 20.4 7.49081 20.4062 7.55581 20.4175C8.02581 20.4862 8.43831 20.8337 8.83456 21.3575L9.97206 23.4375L9.97581 23.4412C10.2796 24.1075 10.9183 24.7713 11.4621 25.4888C12.0046 26.2363 12.4246 26.9025 12.3733 27.4513V27.4587C12.3021 28.3887 11.7746 28.8937 10.9671 29.0763C10.1608 29.245 9.06706 29.0788 7.97331 28.4963C6.76331 27.8263 5.32581 27.91 4.40206 27.7437C3.94081 27.6612 3.63831 27.4925 3.49831 27.2425C3.35956 26.9938 3.35706 26.4912 3.65206 25.705V25.7013L3.65456 25.6975C3.80081 25.28 3.69206 24.7562 3.62081 24.2987C3.55206 23.7975 3.51706 23.4125 3.67456 23.1238C3.87456 22.7063 4.16956 22.625 4.53581 22.4575C4.90456 22.2887 5.33706 22.205 5.68081 21.8713H5.68331V21.8675C6.00331 21.5325 6.23956 21.1163 6.51831 20.82C6.75581 20.5688 6.99331 20.4 7.34706 20.4ZM16.2958 9.0575C15.7521 9.30875 15.1146 9.72625 14.4358 9.72625C13.7583 9.72625 13.2233 9.3925 12.8371 9.14375C12.6433 8.97625 12.4871 8.80875 12.3696 8.725C12.1646 8.5575 12.1896 8.3075 12.2771 8.3075C12.4133 8.3275 12.4383 8.47625 12.5258 8.55875C12.6458 8.64125 12.7946 8.8075 12.9771 8.975C13.3408 9.225 13.8271 9.55875 14.4346 9.55875C15.0408 9.55875 15.7508 9.225 16.1821 8.97625C16.4258 8.8075 16.7383 8.55875 16.9921 8.3925C17.1871 8.22125 17.1783 8.0575 17.3408 8.0575C17.5021 8.0775 17.3833 8.225 17.1571 8.47375C16.9308 8.6425 16.5808 8.8925 16.2946 9.05875V9.0575H16.2958ZM14.9433 7.0775V7.05C14.9358 7.02625 14.9596 6.9975 14.9796 6.9875C15.0721 6.93375 15.2046 6.95375 15.3046 6.9925C15.3833 6.9925 15.5046 7.07625 15.4921 7.16125C15.4846 7.2225 15.3858 7.24375 15.3233 7.24375C15.2546 7.24375 15.2083 7.19 15.1471 7.15875C15.0821 7.13625 14.9646 7.14875 14.9433 7.0775ZM14.2546 7.0775C14.2296 7.15 14.1133 7.13875 14.0471 7.16C13.9883 7.19125 13.9396 7.245 13.8733 7.245C13.8096 7.245 13.7096 7.22125 13.7021 7.16C13.6908 7.0775 13.8121 6.99375 13.8896 6.99375C13.9908 6.955 14.1196 6.935 14.2133 6.9875C14.2371 6.99875 14.2583 7.025 14.2508 7.05V7.07625H14.2546V7.0775Z" fill="black"/>
</g>
<defs>
<clipPath id="clip0_1_731">
<rect width="30" height="30" fill="white" transform="translate(0.333313)"/>
</clipPath>
</defs>
</svg>
