<svg width="35" height="35" viewBox="0 0 35 35" fill="none" xmlns="http://www.w3.org/2000/svg">
<path d="M17.5 35C15.0862 35 12.8148 34.539 10.6859 33.6169C8.5569 32.6948 6.70471 31.4461 5.12931 29.8707C3.55391 28.2953 2.30517 26.4431 1.3831 24.3141C0.461034 22.1852 0 19.9138 0 17.5C0 15.0862 0.461034 12.8148 1.3831 10.6859C2.30517 8.5569 3.55391 6.70471 5.12931 5.12931C6.70471 3.55391 8.5569 2.30517 10.6859 1.3831C12.8148 0.461034 15.0862 0 17.5 0C19.9138 0 22.1852 0.461034 24.3141 1.3831C26.4431 2.30517 28.2953 3.55391 29.8707 5.12931C31.4461 6.70471 32.6948 8.5569 33.6169 10.6859C34.539 12.8148 35 15.0862 35 17.5C35 19.9138 34.539 22.1852 33.6169 24.3141C32.6948 26.4431 31.4461 28.2953 29.8707 29.8707C28.2953 31.4461 26.4431 32.6948 24.3141 33.6169C22.1852 34.539 19.9138 35 17.5 35ZM15.4386 33.6929V29.7198C14.3323 29.7198 13.3849 29.326 12.5964 28.5383C11.8087 27.7506 11.4148 26.7867 11.4148 25.6466V23.5852L1.60879 13.8286C1.50822 14.4321 1.41609 15.0355 1.33241 15.639C1.24874 16.2424 1.2069 16.8628 1.2069 17.5C1.2069 21.6236 2.55621 25.2274 5.25483 28.3114C7.95345 31.3962 11.348 33.1901 15.4386 33.6929ZM29.5183 28.5129C30.1893 27.7751 30.7928 26.9705 31.3286 26.0991C31.8653 25.2278 32.3179 24.3226 32.6864 23.3836C33.0557 22.4447 33.3325 21.4807 33.5167 20.4919C33.701 19.503 33.7931 18.5057 33.7931 17.5C33.7931 14.1472 32.8795 11.0797 31.0522 8.29741C29.225 5.51511 26.736 3.50362 23.5852 2.26293V3.21879C23.5852 4.3581 23.1909 5.32201 22.4024 6.11052C21.6147 6.89822 20.6677 7.29207 19.5614 7.29207H15.4386V11.4148C15.4386 11.9853 15.2455 12.4632 14.8593 12.8486C14.4739 13.234 13.9964 13.4267 13.4267 13.4267H9.35345V17.5H21.5733C22.1767 17.5 22.6627 17.7011 23.0312 18.1034C23.4005 18.5057 23.5852 18.9917 23.5852 19.5614V25.6466H25.6466C26.5517 25.6466 27.3563 25.9149 28.0603 26.4516C28.7644 26.9874 29.2503 27.6745 29.5183 28.5129Z" fill="#1C1B1F"/>
</svg>
